<svg xmlns="http://www.w3.org/2000/svg" width="1024" height="1024" viewBox="0 0 1024 1024">
<g>
<path d="M 507.59,30.53 L 517.47,30.61 L 522.26,30.70 L 527.01,30.80 L 529.30,30.86 L 533.82,30.99 L 535.97,31.06 L 540.19,31.22 L 542.15,31.31 L 545.98,31.50 L 547.72,31.61 L 551.07,31.83 L 552.54,31.95 L 555.34,32.20 L 556.50,32.33 L 573.62,34.57 L 584.74,36.27 L 590.18,37.23 L 600.96,39.22 L 606.25,40.33 L 616.75,42.61 L 621.92,43.88 L 632.18,46.48 L 637.25,47.90 L 647.33,50.83 L 652.32,52.42 L 662.27,55.68 L 667.21,57.44 L 677.08,61.06 L 682.00,63.00 L 688.88,65.76 L 693.12,67.49 L 695.05,68.30 L 698.77,69.88 L 700.41,70.60 L 703.54,71.99 L 704.87,72.60 L 707.36,73.77 L 708.34,74.26 L 710.12,75.18 L 710.72,75.54 L 711.73,76.19 L 711.92,76.40 L 712.10,76.74 L 711.85,76.79 L 711.30,76.79 L 710.72,76.73 L 710.34,76.67 L 708.56,76.37 L 707.39,76.13 L 704.87,75.58 L 703.42,75.24 L 700.45,74.51 L 698.88,74.10 L 683.39,70.37 L 672.96,68.20 L 667.70,67.27 L 657.15,65.53 L 651.84,64.81 L 641.19,63.49 L 635.83,62.99 L 625.11,62.09 L 619.73,61.80 L 608.95,61.32 L 603.55,61.23 L 592.74,61.17 L 587.34,61.30 L 576.53,61.65 L 571.12,61.98 L 560.33,62.75 L 554.94,63.29 L 544.19,64.48 L 538.83,65.23 L 528.14,66.82 L 522.82,67.78 L 512.21,69.79 L 506.94,70.95 L 496.44,73.36 L 491.24,74.73 L 480.87,77.55 L 475.74,79.12 L 465.52,82.36 L 460.47,84.13 L 450.43,87.77 L 445.48,89.74 L 423.01,99.48 L 408.39,106.60 L 401.28,110.47 L 387.19,118.40 L 380.35,122.65 L 366.81,131.36 L 360.25,135.99 L 347.29,145.43 L 341.03,150.42 L 328.68,160.58 L 322.74,165.91 L 311.02,176.75 L 305.41,182.40 L 294.35,193.88 L 289.08,199.85 L 278.72,211.94 L 273.81,218.20 L 264.17,230.88 L 259.63,237.42 L 250.74,250.63 L 246.58,257.44 L 238.47,271.17 L 234.72,278.22 L 227.41,292.44 L 224.07,299.72 L 217.60,314.38 L 214.69,321.88 L 209.09,336.96 L 206.62,344.65 L 201.90,360.12 L 199.89,367.99 L 196.79,380.78 L 194.99,388.98 L 194.21,392.97 L 192.72,400.89 L 192.10,404.80 L 190.92,412.59 L 190.44,416.49 L 189.55,424.31 L 189.21,428.28 L 188.59,436.28 L 188.38,440.40 L 188.01,448.73 L 187.91,453.08 L 187.77,461.89 L 187.79,466.53 L 188.24,487.81 L 188.94,501.47 L 189.51,508.09 L 190.78,521.21 L 191.63,527.61 L 193.50,540.32 L 194.66,546.57 L 197.14,559.01 L 198.62,565.18 L 201.74,577.49 L 203.56,583.65 L 207.35,595.99 L 209.51,602.21 L 214.00,614.70 L 216.52,621.05 L 222.34,634.91 L 226.51,644.07 L 228.74,648.61 L 233.29,657.65 L 235.70,662.12 L 240.61,671.02 L 243.19,675.41 L 248.45,684.15 L 251.21,688.45 L 256.80,697.02 L 259.71,701.22 L 265.62,709.59 L 268.69,713.69 L 274.90,721.84 L 278.11,725.83 L 284.61,733.75 L 287.96,737.61 L 294.73,745.27 L 298.21,749.00 L 305.23,756.39 L 308.83,759.98 L 316.10,767.08 L 319.82,770.52 L 327.31,777.31 L 331.13,780.58 L 338.84,787.04 L 342.76,790.14 L 350.66,796.26 L 354.68,799.18 L 362.75,804.93 L 366.86,807.66 L 387.19,820.50 L 400.78,828.36 L 407.60,831.96 L 421.29,838.93 L 428.19,842.09 L 442.05,848.19 L 449.06,850.93 L 463.13,856.18 L 470.28,858.50 L 484.65,862.94 L 491.97,864.86 L 506.69,868.49 L 514.21,870.02 L 529.35,872.89 L 537.09,874.04 L 560.79,876.86 L 576.61,878.04 L 584.52,878.28 L 600.35,878.53 L 608.25,878.30 L 624.05,877.63 L 631.92,876.94 L 647.65,875.34 L 655.48,874.19 L 671.11,871.67 L 678.88,870.06 L 694.38,866.62 L 702.07,864.56 L 717.41,860.20 L 725.00,857.68 L 732.27,855.23 L 736.70,853.69 L 738.77,852.95 L 746.68,850.00 L 750.49,848.43 L 754.31,846.83 L 756.27,845.98 L 760.24,844.21 L 762.34,843.24 L 766.65,841.24 L 769.00,840.12 L 773.83,837.80 L 776.50,836.49 L 793.25,827.84 L 804.08,821.78 L 809.35,818.57 L 819.79,812.06 L 824.88,808.62 L 834.99,801.62 L 839.93,797.93 L 849.74,790.41 L 854.56,786.43 L 864.14,778.35 L 868.87,774.08 L 878.27,765.39 L 882.92,760.81 L 892.19,751.48 L 896.79,746.56 L 907.91,734.06 L 915.27,725.17 L 918.89,720.51 L 926.06,711.08 L 929.53,706.22 L 936.39,696.43 L 939.65,691.47 L 946.06,681.52 L 949.05,676.56 L 954.89,666.65 L 957.54,661.77 L 962.67,652.09 L 964.93,647.40 L 967.14,642.75 L 968.15,640.47 L 970.13,635.95 L 971.02,633.75 L 972.00,631.52 L 972.65,630.21 L 972.94,629.69 L 973.50,628.75 L 973.72,628.45 L 974.13,628.00 L 974.25,628.00 L 974.72,628.51 L 974.76,629.27 L 974.62,629.75 L 974.44,630.36 L 974.26,630.99 L 974.14,631.42 L 973.59,633.37 L 973.23,634.66 L 972.45,637.43 L 972.01,639.01 L 971.09,642.28 L 970.61,644.00 L 965.15,662.07 L 961.13,674.01 L 958.93,679.92 L 954.41,691.71 L 951.96,697.54 L 946.96,709.16 L 944.28,714.89 L 938.80,726.32 L 935.88,731.95 L 929.94,743.17 L 926.80,748.70 L 920.41,759.69 L 917.05,765.10 L 910.22,775.85 L 906.64,781.13 L 899.39,791.63 L 895.60,796.77 L 887.93,806.99 L 883.94,811.99 L 875.87,821.91 L 871.68,826.75 L 863.22,836.37 L 858.84,841.05 L 849.99,850.33 L 845.43,854.84 L 836.22,863.78 L 831.48,868.11 L 821.91,876.69 L 817.00,880.83 L 807.08,889.02 L 802.00,892.97 L 787.81,903.59 L 778.20,910.38 L 773.31,913.64 L 763.49,920.06 L 758.50,923.13 L 748.48,929.17 L 743.40,932.05 L 733.18,937.71 L 728.01,940.39 L 717.62,945.67 L 712.35,948.16 L 701.79,953.05 L 696.44,955.34 L 685.71,959.84 L 680.28,961.94 L 669.39,966.04 L 663.89,967.94 L 652.84,971.65 L 647.27,973.35 L 636.09,976.65 L 630.45,978.15 L 619.13,981.05 L 613.42,982.35 L 601.98,984.84 L 596.22,985.94 L 584.66,988.02 L 578.84,988.91 L 567.17,990.58 L 561.30,991.25 L 549.53,992.51 L 543.60,992.98 L 536.07,993.50 L 531.99,993.67 L 523.65,993.96 L 519.25,994.01 L 510.33,994.08 L 505.73,994.03 L 496.46,993.87 L 491.76,993.71 L 482.36,993.35 L 477.68,993.09 L 468.36,992.52 L 463.82,992.16 L 454.81,991.40 L 450.51,990.95 L 442.04,990.00 L 438.09,989.45 L 413.08,985.26 L 396.37,981.71 L 388.02,979.58 L 371.34,975.06 L 363.05,972.46 L 346.53,967.02 L 338.36,963.97 L 322.09,957.64 L 314.09,954.16 L 298.19,947.00 L 290.42,943.11 L 274.99,935.14 L 267.50,930.87 L 252.66,922.14 L 245.50,917.50 L 233.52,909.49 L 225.68,904.00 L 221.83,901.18 L 214.17,895.48 L 210.42,892.56 L 202.97,886.67 L 199.31,883.65 L 192.05,877.56 L 188.50,874.45 L 181.44,868.18 L 177.99,864.97 L 171.14,858.52 L 167.79,855.22 L 161.14,848.59 L 157.90,845.21 L 151.46,838.40 L 148.32,834.93 L 142.10,827.96 L 139.06,824.41 L 133.05,817.27 L 130.13,813.64 L 124.34,806.34 L 121.53,802.63 L 115.96,795.18 L 113.26,791.40 L 107.91,783.80 L 105.32,779.94 L 100.20,772.19 L 97.73,768.27 L 92.84,760.38 L 90.48,756.39 L 85.82,748.37 L 83.58,744.31 L 79.16,736.16 L 77.03,732.04 L 72.85,723.76 L 70.85,719.58 L 66.90,711.18 L 65.02,706.94 L 61.32,698.43 L 59.56,694.13 L 56.11,685.51 L 54.48,681.16 L 51.27,672.43 L 49.76,668.03 L 46.81,659.20 L 45.43,654.75 L 42.73,645.83 L 41.48,641.33 L 39.04,632.32 L 37.92,627.78 L 35.74,618.67 L 34.75,614.09 L 32.84,604.91 L 31.98,600.29 L 30.33,591.02 L 29.61,586.37 L 28.23,577.03 L 27.64,572.34 L 26.53,562.94 L 26.08,558.22 L 25.25,548.75 L 24.94,544.00 L 24.68,539.35 L 24.53,535.98 L 24.47,534.19 L 24.27,526.73 L 24.22,522.69 L 24.15,514.44 L 24.17,510.18 L 24.23,501.60 L 24.30,497.33 L 24.48,488.86 L 24.61,484.82 L 24.90,476.90 L 25.09,473.31 L 25.28,469.79 L 25.38,468.14 L 25.60,464.94 L 25.71,463.48 L 25.95,460.65 L 26.08,459.40 L 26.34,457.01 L 26.48,456.00 L 30.02,432.93 L 32.66,418.22 L 34.15,411.16 L 37.23,397.19 L 38.95,390.44 L 42.51,377.06 L 44.49,370.52 L 48.58,357.56 L 50.85,351.17 L 55.53,338.45 L 58.10,332.13 L 63.41,319.50 L 66.32,313.16 L 72.32,300.44 L 75.59,294.00 L 82.63,280.65 L 87.55,271.86 L 90.12,267.52 L 95.33,258.87 L 98.04,254.61 L 103.52,246.12 L 106.37,241.93 L 112.12,233.61 L 115.10,229.52 L 121.11,221.37 L 124.21,217.36 L 130.48,209.40 L 133.71,205.50 L 140.22,197.73 L 143.57,193.92 L 150.32,186.36 L 153.78,182.66 L 160.76,175.32 L 164.33,171.73 L 171.52,164.60 L 175.20,161.13 L 182.61,154.24 L 186.38,150.89 L 193.99,144.24 L 197.87,141.02 L 205.67,134.63 L 209.64,131.53 L 217.63,125.40 L 221.69,122.44 L 229.85,116.58 L 234.00,113.76 L 252.80,101.60 L 265.66,93.92 L 272.23,90.30 L 285.46,83.20 L 292.20,79.87 L 305.77,73.38 L 312.66,70.37 L 326.52,64.50 L 333.54,61.80 L 347.64,56.58 L 354.77,54.21 L 369.07,49.65 L 376.28,47.62 L 390.73,43.74 L 398.00,42.06 L 403.91,40.79 L 408.50,39.87 L 411.04,39.39 L 416.27,38.43 L 419.04,37.94 L 424.66,36.97 L 427.54,36.49 L 439.16,34.61 L 444.64,33.81 L 450.03,33.04 L 452.53,32.71 L 457.37,32.09 L 459.50,31.85 L 463.27,31.50 L 466.24,31.30 L 467.92,31.21 L 471.43,31.04 L 473.35,30.97 L 477.30,30.83 L 479.42,30.78 L 483.74,30.68 L 486.00,30.64 L 490.60,30.58 L 492.98,30.55 L 502.66,30.51 M 680.64,93.19 L 682.29,93.33 L 683.48,93.51 L 686.09,93.95 L 687.77,94.28 L 691.37,95.02 L 693.55,95.49 L 704.15,98.06 L 711.32,100.06 L 714.95,101.21 L 722.24,103.60 L 725.92,104.93 L 733.29,107.68 L 736.99,109.18 L 744.42,112.28 L 748.14,113.95 L 755.59,117.38 L 759.32,119.21 L 766.77,122.95 L 770.48,124.93 L 777.90,128.96 L 781.58,131.08 L 788.93,135.39 L 792.58,137.65 L 799.84,142.22 L 803.43,144.60 L 810.57,149.42 L 814.09,151.91 L 821.08,156.96 L 824.52,159.56 L 831.33,164.82 L 834.66,167.53 L 841.27,172.98 L 844.49,175.77 L 850.86,181.41 L 853.95,184.28 L 860.06,190.08 L 863.00,193.03 L 872.02,202.40 L 877.90,208.84 L 880.76,212.14 L 886.44,218.80 L 889.20,222.22 L 894.67,229.09 L 897.32,232.60 L 902.57,239.67 L 905.11,243.27 L 910.13,250.51 L 912.55,254.19 L 917.33,261.58 L 919.62,265.33 L 924.16,272.87 L 926.32,276.68 L 930.59,284.34 L 932.63,288.21 L 936.63,295.96 L 938.53,299.87 L 942.25,307.71 L 944.00,311.66 L 947.43,319.57 L 949.03,323.54 L 952.16,331.49 L 953.60,335.48 L 956.42,343.46 L 957.71,347.46 L 960.20,355.45 L 961.33,359.45 L 963.49,367.44 L 964.44,371.42 L 967.19,383.54 L 968.80,391.31 L 969.50,395.09 L 970.82,402.59 L 971.39,406.28 L 972.44,413.64 L 972.87,417.31 L 973.68,424.67 L 973.99,428.39 L 974.56,435.88 L 974.76,439.73 L 975.10,447.49 L 975.20,451.53 L 975.34,459.71 L 975.34,464.00 L 975.30,473.18 L 975.21,478.78 L 975.13,481.38 L 974.96,486.47 L 974.83,488.89 L 974.55,493.67 L 974.36,496.01 L 973.50,505.31 L 972.85,510.26 L 972.17,515.29 L 971.76,517.98 L 970.91,523.50 L 970.41,526.50 L 967.68,541.20 L 965.55,550.93 L 964.33,555.74 L 961.81,565.34 L 960.40,570.10 L 957.48,579.57 L 955.87,584.25 L 952.57,593.58 L 950.77,598.19 L 947.09,607.37 L 945.11,611.89 L 941.05,620.90 L 938.88,625.35 L 934.45,634.18 L 932.10,638.53 L 927.32,647.18 L 924.79,651.43 L 919.64,659.88 L 916.94,664.03 L 911.45,672.27 L 908.57,676.31 L 902.74,684.33 L 899.69,688.25 L 893.52,696.04 L 890.31,699.84 L 883.80,707.38 L 880.43,711.06 L 873.60,718.35 L 870.06,721.89 L 862.92,728.91 L 859.22,732.32 L 849.93,740.62 L 843.61,745.99 L 840.38,748.59 L 833.89,753.74 L 830.59,756.23 L 823.95,761.15 L 820.57,763.53 L 813.78,768.22 L 810.33,770.48 L 803.40,774.94 L 799.89,777.08 L 792.82,781.31 L 789.25,783.33 L 782.06,787.32 L 778.42,789.22 L 771.11,792.96 L 767.42,794.73 L 760.01,798.23 L 756.26,799.88 L 748.74,803.12 L 744.95,804.64 L 737.34,807.62 L 733.50,809.01 L 725.81,811.73 L 721.93,813.00 L 714.15,815.45 L 710.24,816.58 L 702.39,818.77 L 698.45,819.76 L 690.54,821.67 L 686.56,822.53 L 680.88,823.70 L 677.85,824.27 L 676.71,824.45 L 674.67,824.72 L 674.01,824.74 L 672.94,824.69 L 672.76,824.54 L 672.63,824.16 L 672.91,823.84 L 673.71,823.11 L 674.45,822.60 L 676.15,821.50 L 677.33,820.81 L 679.91,819.32 L 681.53,818.43 L 697.41,809.21 L 707.70,802.81 L 712.68,799.48 L 722.55,792.73 L 727.33,789.24 L 736.78,782.16 L 741.34,778.50 L 750.37,771.09 L 754.72,767.27 L 763.31,759.54 L 767.45,755.55 L 775.61,747.50 L 779.53,743.36 L 787.25,735.00 L 790.95,730.70 L 798.23,722.03 L 801.71,717.58 L 808.54,708.61 L 811.79,704.01 L 818.18,694.74 L 821.20,689.99 L 827.13,680.43 L 829.92,675.54 L 835.39,665.68 L 837.95,660.65 L 842.96,650.52 L 845.29,645.35 L 849.82,634.93 L 851.91,629.63 L 855.98,618.94 L 857.83,613.50 L 862.22,599.87 L 863.62,595.25 L 864.27,593.02 L 865.54,588.64 L 866.10,586.61 L 867.17,582.68 L 867.61,580.96 L 868.43,577.72 L 868.72,576.43 L 868.98,575.20 L 869.08,574.68 L 869.26,573.72 L 869.32,573.34 L 869.40,572.67 L 869.40,572.45 L 869.37,572.09 L 869.32,572.04 L 868.78,571.98 L 868.44,572.30 L 868.33,572.60 L 867.77,573.73 L 867.05,575.09 L 866.56,575.99 L 865.48,577.94 L 864.86,579.06 L 863.55,581.38 L 862.85,582.60 L 857.04,592.14 L 852.93,598.27 L 850.75,601.23 L 846.32,607.06 L 843.99,609.86 L 839.24,615.39 L 836.75,618.04 L 831.68,623.27 L 829.03,625.77 L 823.65,630.70 L 820.83,633.05 L 815.13,637.68 L 812.16,639.89 L 806.13,644.22 L 803.00,646.27 L 796.42,650.34 L 791.53,653.14 L 788.96,654.53 L 783.77,657.28 L 781.19,658.58 L 776.07,661.12 L 773.67,662.24 L 768.99,664.38 L 766.96,665.24 L 764.97,666.06 L 764.08,666.41 L 762.36,667.06 L 761.62,667.32 L 760.21,667.78 L 759.64,667.93 L 758.59,668.17 L 758.21,668.21 L 757.57,668.22 L 757.41,668.13 L 757.21,667.88 L 757.30,667.65 L 757.59,667.10 L 757.96,666.48 L 758.21,666.05 L 758.78,665.13 L 759.13,664.58 L 759.87,663.40 L 760.30,662.73 L 762.15,659.85 L 763.24,658.18 L 765.51,654.71 L 766.74,652.87 L 777.82,635.23 L 784.63,623.39 L 787.75,617.40 L 793.79,605.39 L 796.53,599.30 L 801.83,587.06 L 804.20,580.85 L 808.78,568.34 L 810.80,561.96 L 814.68,549.12 L 816.36,542.56 L 819.55,529.35 L 820.89,522.58 L 823.42,508.93 L 824.44,501.92 L 824.97,497.95 L 825.31,495.07 L 825.47,493.55 L 826.09,487.22 L 826.36,483.85 L 826.87,477.02 L 827.08,473.58 L 827.46,466.74 L 827.59,463.50 L 827.82,457.16 L 827.87,454.34 L 827.91,451.60 L 827.91,450.35 L 827.91,447.94 L 827.89,446.88 L 827.83,444.85 L 827.79,444.01 L 827.68,442.44 L 827.61,441.84 L 827.45,440.79 L 827.35,440.48 L 827.13,440.00 L 827.00,440.00 L 826.29,440.40 L 826.00,440.98 L 826.00,441.36 L 825.91,442.11 L 825.78,442.84 L 825.67,443.30 L 825.14,445.39 L 824.75,446.76 L 823.89,449.69 L 823.37,451.38 L 822.25,454.92 L 821.63,456.82 L 818.97,464.77 L 817.56,468.72 L 816.14,472.64 L 815.46,474.47 L 814.10,478.04 L 813.47,479.62 L 809.37,489.31 L 806.42,495.77 L 804.86,498.99 L 798.36,511.77 L 794.82,517.92 L 791.25,524.03 L 789.41,526.99 L 785.70,532.85 L 783.80,535.66 L 779.99,541.21 L 778.06,543.85 L 774.19,549.02 L 772.24,551.44 L 763.25,561.97 L 756.86,568.81 L 753.48,572.14 L 746.61,578.72 L 743.01,581.90 L 735.70,588.19 L 731.89,591.21 L 724.19,597.16 L 720.21,600.01 L 712.16,605.59 L 708.02,608.24 L 699.66,613.43 L 695.38,615.86 L 686.76,620.61 L 682.37,622.81 L 672.76,627.43 L 666.22,630.40 L 663.03,631.77 L 656.72,634.45 L 653.80,635.62 L 650.92,636.76 L 649.57,637.28 L 646.91,638.29 L 645.69,638.74 L 643.31,639.59 L 642.25,639.95 L 640.20,640.63 L 639.31,640.90 L 637.64,641.39 L 636.97,641.56 L 635.73,641.84 L 635.29,641.89 L 634.53,641.95 L 634.35,641.88 L 634.12,641.68 L 634.23,641.49 L 634.59,641.02 L 635.00,640.69 L 636.00,639.94 L 636.75,639.45 L 639.58,637.52 L 641.64,636.01 L 642.76,635.15 L 645.04,633.38 L 646.24,632.41 L 648.70,630.40 L 649.98,629.32 L 655.24,624.82 L 657.99,622.36 L 663.56,617.30 L 666.37,614.66 L 671.98,609.31 L 674.69,606.62 L 680.05,601.25 L 682.54,598.65 L 687.36,593.53 L 689.47,591.15 L 691.53,588.80 L 692.47,587.69 L 694.28,585.51 L 695.09,584.50 L 706.69,568.75 L 713.84,557.94 L 717.12,552.38 L 723.48,541.17 L 726.36,535.42 L 731.92,523.84 L 734.40,517.93 L 739.14,506.01 L 741.20,499.94 L 745.12,487.72 L 746.76,481.51 L 749.83,469.02 L 751.05,462.68 L 753.27,449.95 L 754.06,443.50 L 754.45,439.78 L 754.67,437.08 L 754.76,435.65 L 755.09,429.69 L 755.19,426.52 L 755.35,420.07 L 755.36,416.82 L 755.35,410.35 L 755.29,407.28 L 755.12,401.27 L 754.99,398.61 L 754.84,396.01 L 754.75,394.82 L 754.57,392.53 L 754.46,391.53 L 754.25,389.61 L 754.13,388.81 L 753.88,387.31 L 753.74,386.75 L 753.46,385.75 L 753.31,385.45 L 753.00,385.00 L 752.84,385.00 L 752.32,385.26 L 751.69,385.67 L 751.24,385.99 L 750.25,386.69 L 749.65,387.14 L 748.36,388.11 L 747.62,388.68 L 746.07,389.86 L 745.22,390.53 L 743.46,391.91 L 742.52,392.65 L 738.58,395.79 L 736.47,397.51 L 733.43,399.97 L 731.62,401.44 L 730.81,402.10 L 729.25,403.37 L 728.56,403.95 L 727.23,405.06 L 726.65,405.57 L 724.53,407.50 L 723.75,408.36 L 722.35,410.05 L 721.86,410.90 L 721.02,412.62 L 720.75,413.60 L 720.29,415.66 L 720.16,416.90 L 719.93,419.57 L 719.85,421.23 L 719.76,422.95 L 719.72,423.91 L 719.63,425.89 L 719.57,427.00 L 718.63,439.09 L 717.68,447.11 L 717.04,451.09 L 715.66,459.05 L 714.80,463.00 L 712.99,470.89 L 711.92,474.81 L 709.68,482.63 L 708.40,486.51 L 705.72,494.27 L 704.23,498.12 L 701.12,505.80 L 699.41,509.61 L 695.88,517.22 L 693.96,521.00 L 691.42,525.74 L 689.45,529.22 L 688.38,531.05 L 683.92,538.49 L 681.72,541.94 L 679.55,545.30 L 678.56,546.79 L 676.63,549.63 L 675.81,550.77 L 675.02,551.86 L 674.67,552.32 L 674.00,553.18 L 673.72,553.52 L 673.19,554.12 L 672.98,554.32 L 672.62,554.63 L 672.50,554.67 L 672.08,554.04 L 671.85,552.87 L 671.76,551.93 L 671.60,549.83 L 671.56,548.46 L 671.48,545.51 L 671.48,543.75 L 671.38,538.94 L 671.22,535.94 L 671.10,534.61 L 670.85,532.10 L 670.69,531.11 L 670.35,529.33 L 670.16,528.78 L 668.61,525.52 L 667.31,523.71 L 666.52,523.00 L 664.86,521.69 L 663.91,521.22 L 661.92,520.41 L 660.81,520.19 L 658.51,519.88 L 657.24,519.92 L 654.65,520.12 L 653.25,520.41 L 650.38,521.12 L 648.85,521.67 L 645.73,522.89 L 644.07,523.70 L 639.86,525.98 L 637.27,527.68 L 635.92,528.74 L 634.56,529.84 L 633.83,530.47 L 632.35,531.79 L 631.54,532.54 L 629.88,534.11 L 628.96,535.00 L 627.05,536.88 L 625.99,537.95 L 619.71,544.65 L 615.71,549.31 L 613.81,551.74 L 610.07,556.66 L 608.31,559.20 L 604.85,564.34 L 603.23,566.99 L 600.06,572.33 L 598.59,575.08 L 595.72,580.60 L 594.41,583.43 L 591.86,589.12 L 590.71,592.02 L 588.49,597.85 L 587.51,600.81 L 586.55,603.63 L 585.95,605.32 L 585.66,606.07 L 584.58,608.81 L 584.10,609.84 L 583.16,611.68 L 582.72,612.30 L 581.87,613.35 L 581.46,613.62 L 580.78,613.95 L 580.13,614.19 L 579.71,614.31 L 577.85,614.83 L 576.66,615.10 L 574.13,615.63 L 572.72,615.87 L 569.82,616.35 L 568.33,616.54 L 554.36,618.77 L 545.58,620.57 L 541.44,621.65 L 533.31,623.92 L 529.46,625.24 L 521.91,628.00 L 518.33,629.57 L 511.29,632.86 L 507.95,634.70 L 501.36,638.54 L 498.21,640.67 L 492.01,645.08 L 489.03,647.51 L 483.15,652.53 L 480.30,655.28 L 475.47,660.15 L 472.52,663.35 L 471.18,664.94 L 468.57,668.11 L 467.39,669.71 L 465.09,672.90 L 464.05,674.52 L 462.04,677.78 L 461.13,679.45 L 459.37,682.83 L 458.57,684.57 L 457.03,688.11 L 456.34,689.95 L 454.99,693.68 L 454.38,695.64 L 453.50,699.16 L 453.08,701.76 L 452.94,703.33 L 452.80,704.94 L 452.75,705.84 L 452.66,707.70 L 452.63,708.74 L 452.57,710.90 L 452.56,712.11 L 452.53,714.60 L 452.53,716.00 L 452.59,721.99 L 452.71,725.59 L 452.81,727.22 L 453.04,730.36 L 453.21,731.79 L 453.57,734.53 L 453.80,735.78 L 454.29,738.18 L 454.59,739.27 L 455.23,741.40 L 455.61,742.37 L 457.29,746.06 L 458.39,747.71 L 460.76,751.30 L 461.38,752.28 L 461.61,752.64 L 462.00,753.28 L 462.08,753.43 L 463.88,756.92 L 464.78,758.89 L 465.09,759.72 L 465.63,761.30 L 465.78,761.98 L 466.00,763.27 L 466.00,763.84 L 466.15,764.71 L 466.42,765.39 L 466.64,765.80 L 467.16,766.67 L 467.52,767.19 L 468.32,768.28 L 468.84,768.93 L 469.96,770.29 L 470.65,771.09 L 472.12,772.76 L 473.00,773.72 L 474.85,775.75 L 475.94,776.90 L 478.21,779.32 L 479.52,780.69 L 485.20,786.54 L 488.77,790.10 L 490.45,791.71 L 493.74,794.83 L 495.29,796.24 L 498.33,798.94 L 499.77,800.14 L 502.59,802.45 L 503.92,803.46 L 506.54,805.39 L 507.78,806.22 L 510.21,807.79 L 511.37,808.45 L 513.66,809.68 L 514.75,810.18 L 517.57,811.56 L 519.00,812.40 L 519.51,812.78 L 520.39,813.52 L 520.64,813.86 L 521.00,814.53 L 521.00,814.85 L 521.47,816.60 L 522.25,817.74 L 522.89,818.31 L 524.34,819.45 L 525.31,820.03 L 527.44,821.19 L 528.76,821.78 L 530.35,822.57 L 531.23,823.08 L 531.55,823.31 L 532.12,823.76 L 532.25,823.93 L 532.42,824.25 L 532.33,824.34 L 531.98,824.74 L 531.70,824.81 L 531.38,824.86 L 531.14,824.85 L 530.59,824.78 L 530.18,824.69 L 529.27,824.48 L 528.63,824.32 L 527.24,823.94 L 526.32,823.68 L 524.32,823.10 L 523.06,822.74 L 520.34,821.94 L 518.67,821.46 L 509.84,818.64 L 504.06,816.56 L 501.23,815.42 L 495.60,813.07 L 492.85,811.80 L 487.38,809.20 L 484.72,807.81 L 479.44,804.96 L 476.87,803.45 L 471.77,800.37 L 469.30,798.75 L 464.41,795.45 L 462.04,793.71 L 457.37,790.19 L 455.11,788.36 L 450.66,784.63 L 448.52,782.70 L 444.31,778.78 L 442.30,776.75 L 438.34,772.64 L 436.45,770.52 L 432.75,766.24 L 431.01,764.04 L 427.58,759.59 L 425.98,757.31 L 422.84,752.71 L 421.38,750.35 L 418.54,745.60 L 417.24,743.18 L 414.71,738.29 L 413.56,735.80 L 409.51,725.91 L 407.24,719.18 L 406.33,715.76 L 404.63,708.89 L 404.00,705.41 L 402.89,698.43 L 402.55,694.91 L 402.02,687.86 L 401.97,684.32 L 402.02,677.23 L 402.27,673.68 L 402.92,666.59 L 403.46,663.06 L 404.70,656.00 L 405.54,652.50 L 408.67,640.82 L 411.00,633.39 L 412.31,629.82 L 415.02,622.77 L 416.53,619.35 L 419.67,612.58 L 421.42,609.26 L 425.05,602.67 L 427.06,599.40 L 431.22,592.88 L 433.52,589.61 L 438.28,583.07 L 440.89,579.75 L 446.29,573.08 L 449.25,569.66 L 453.35,565.01 L 455.91,562.23 L 457.15,560.95 L 462.05,556.09 L 464.71,553.79 L 467.43,551.50 L 468.91,550.33 L 471.98,547.95 L 473.69,546.69 L 477.26,544.09 L 479.27,542.67 L 483.48,539.74 L 485.87,538.10 L 494.52,531.97 L 500.09,527.83 L 502.78,525.73 L 508.08,521.51 L 510.64,519.37 L 515.68,515.07 L 518.11,512.88 L 522.89,508.50 L 525.18,506.27 L 529.71,501.80 L 531.87,499.54 L 536.14,494.98 L 538.18,492.67 L 542.19,488.02 L 544.10,485.66 L 547.85,480.92 L 549.63,478.52 L 553.14,473.69 L 554.79,471.24 L 558.04,466.31 L 559.58,463.82 L 562.58,458.79 L 563.98,456.25 L 566.73,451.13 L 568.02,448.53 L 570.52,443.31 L 571.68,440.67 L 576.07,429.97 L 577.91,424.47 L 581.50,412.63 L 583.39,405.17 L 584.10,401.55 L 585.37,394.36 L 585.80,390.76 L 586.52,383.53 L 586.69,379.78 L 586.82,370.80 L 586.60,365.10 L 586.33,362.37 L 585.68,356.99 L 585.19,354.41 L 584.10,349.30 L 583.38,346.83 L 581.83,341.95 L 580.88,339.57 L 578.86,334.86 L 577.67,332.55 L 575.17,327.95 L 573.72,325.68 L 570.72,321.15 L 569.02,318.89 L 564.19,313.27 L 560.66,309.90 L 558.76,308.40 L 554.85,305.54 L 552.76,304.29 L 548.51,301.93 L 546.26,300.93 L 541.69,299.07 L 539.30,298.32 L 534.45,296.96 L 531.93,296.47 L 526.83,295.61 L 524.20,295.37 L 518.89,295.02 L 516.16,295.03 L 510.66,295.17 L 507.86,295.43 L 502.21,296.08 L 499.34,296.59 L 493.58,297.74 L 490.67,298.50 L 484.82,300.15 L 481.88,301.16 L 475.99,303.31 L 473.03,304.58 L 467.12,307.23 L 464.17,308.74 L 458.27,311.90 L 455.34,313.66 L 449.49,317.32 L 446.60,319.33 L 442.55,322.19 L 440.35,323.82 L 439.47,324.52 L 437.85,325.88 L 437.24,326.49 L 436.14,327.68 L 435.75,328.25 L 435.09,329.39 L 434.91,329.97 L 434.62,331.16 L 434.59,331.81 L 434.60,333.16 L 434.69,333.94 L 434.92,335.56 L 435.10,336.50 L 435.81,343.00 L 435.82,347.41 L 435.60,349.53 L 435.02,353.71 L 434.52,355.61 L 433.39,359.25 L 432.62,360.76 L 429.97,365.40 L 428.04,368.10 L 426.86,369.40 L 424.36,372.00 L 422.76,373.39 L 421.10,374.81 L 420.16,375.57 L 418.21,377.12 L 417.11,377.97 L 410.58,383.35 L 406.42,387.16 L 404.46,389.14 L 400.64,393.15 L 398.89,395.20 L 395.51,399.31 L 394.02,401.36 L 390.76,406.33 L 388.60,410.07 L 387.56,412.09 L 385.49,416.21 L 384.52,418.34 L 382.62,422.64 L 381.77,424.79 L 380.12,429.08 L 379.42,431.14 L 378.11,435.21 L 377.60,437.09 L 376.69,440.75 L 376.42,442.35 L 376.00,445.39 L 376.00,446.61 L 376.34,449.93 L 376.94,451.88 L 377.46,452.78 L 378.66,454.55 L 379.51,455.42 L 381.39,457.17 L 382.62,458.09 L 385.71,460.62 L 386.43,461.31 L 386.65,461.56 L 387.00,462.01 L 387.00,462.11 L 386.36,462.77 L 385.28,463.30 L 384.40,463.62 L 382.40,464.29 L 381.05,464.68 L 378.10,465.51 L 376.25,465.98 L 373.25,467.00 L 372.55,467.34 L 372.34,467.50 L 372.00,467.79 L 372.00,467.91 L 372.21,468.17 L 372.56,468.44 L 372.83,468.61 L 374.13,469.40 L 375.08,469.91 L 377.15,471.00 L 378.40,471.62 L 381.03,472.89 L 382.47,473.56 L 386.31,475.37 L 388.35,476.40 L 389.12,476.85 L 390.50,477.68 L 390.94,478.04 L 391.66,478.72 L 391.78,479.02 L 391.86,479.59 L 391.67,479.85 L 391.13,480.35 L 390.63,480.58 L 389.48,481.05 L 388.69,481.29 L 386.96,481.77 L 385.88,482.03 L 381.60,482.71 L 378.70,482.74 L 377.01,482.52 L 375.27,482.25 L 374.29,482.05 L 372.28,481.62 L 371.14,481.33 L 368.76,480.70 L 367.41,480.32 L 364.60,479.50 L 363.00,479.01 L 358.73,477.72 L 355.66,476.80 L 354.13,476.35 L 351.11,475.45 L 349.75,475.05 L 347.16,474.29 L 346.15,474.00 L 342.49,472.81 L 340.41,471.96 L 339.51,471.49 L 337.77,470.51 L 336.98,469.94 L 335.42,468.73 L 334.65,468.02 L 333.10,466.46 L 332.24,465.50 L 331.92,465.09 L 331.38,464.33 L 331.25,464.05 L 331.09,463.58 L 331.18,463.49 L 331.98,463.09 L 332.98,462.72 L 333.66,462.50 L 335.12,462.05 L 335.97,461.81 L 337.74,461.32 L 338.67,461.08 L 345.50,459.35 L 345.15,452.76 L 345.16,448.00 L 345.44,444.94 L 345.71,443.45 L 346.35,440.51 L 346.81,439.08 L 347.82,436.25 L 348.47,434.87 L 349.87,432.12 L 350.71,430.77 L 352.50,428.10 L 353.54,426.78 L 355.73,424.16 L 356.97,422.86 L 359.57,420.27 L 361.02,418.98 L 363.57,416.61 L 365.08,415.09 L 365.74,414.34 L 368.18,411.38 L 369.11,409.84 L 370.81,406.69 L 371.45,404.93 L 372.62,401.24 L 373.08,399.08 L 373.63,393.56 L 373.48,389.41 L 373.17,387.20 L 372.39,382.70 L 371.77,380.41 L 370.39,375.82 L 369.49,373.58 L 368.61,371.21 L 368.17,369.78 L 368.02,369.18 L 367.79,368.09 L 367.77,367.72 L 367.79,367.11 L 367.91,367.04 L 368.43,366.62 L 369.11,366.04 L 369.59,365.61 L 370.66,364.68 L 371.32,364.10 L 372.73,362.85 L 373.55,362.13 L 375.25,360.62 L 376.19,359.78 L 378.14,358.05 L 379.19,357.12 L 383.56,353.21 L 385.92,351.09 L 389.74,347.62 L 392.06,345.49 L 393.10,344.52 L 395.09,342.64 L 395.96,341.80 L 397.61,340.19 L 398.30,339.49 L 399.60,338.16 L 400.11,337.61 L 401.05,336.57 L 401.37,336.17 L 401.92,335.45 L 402.05,335.21 L 402.21,334.81 L 402.13,334.73 L 401.54,334.79 L 400.80,335.12 L 400.27,335.41 L 399.13,336.07 L 398.42,336.52 L 396.92,337.49 L 396.06,338.08 L 394.25,339.31 L 393.26,340.02 L 391.20,341.48 L 390.09,342.28 L 385.47,345.67 L 382.98,347.56 L 377.90,351.44 L 375.33,353.45 L 370.20,357.51 L 367.75,359.50 L 362.97,363.43 L 360.85,365.25 L 358.78,367.03 L 357.84,367.86 L 356.02,369.49 L 355.23,370.23 L 348.51,376.05 L 346.40,377.68 L 345.40,378.40 L 343.43,379.78 L 342.50,380.37 L 340.67,381.47 L 339.82,381.92 L 338.16,382.75 L 337.40,383.06 L 335.92,383.59 L 335.25,383.75 L 333.97,383.99 L 333.41,383.99 L 331.56,384.27 L 330.10,384.71 L 329.29,385.04 L 327.62,385.77 L 326.73,386.23 L 324.92,387.21 L 323.99,387.78 L 320.24,390.22 L 318.47,391.62 L 315.05,394.50 L 313.68,395.98 L 308.23,401.87 L 305.94,399.43 L 303.97,397.72 L 303.36,397.32 L 303.10,397.19 L 302.61,397.00 L 302.45,397.00 L 301.65,397.43 L 300.86,398.10 L 300.37,398.59 L 299.34,399.66 L 298.78,400.31 L 297.64,401.67 L 297.07,402.41 L 295.73,404.13 L 294.98,405.06 L 294.66,405.43 L 293.51,406.64 L 293.03,406.94 L 292.10,407.33 L 291.58,407.31 L 290.46,407.13 L 289.70,406.91 L 287.34,406.27 L 286.74,406.12 L 286.54,406.07 L 286.19,406.00 L 286.14,406.00 L 286.01,406.64 L 286.11,407.13 L 286.21,407.47 L 286.45,408.22 L 286.62,408.69 L 286.99,409.69 L 287.22,410.30 L 287.74,411.58 L 288.05,412.34 L 288.70,413.92 L 289.09,414.82 L 289.90,416.71 L 290.36,417.78 L 293.95,426.06 L 291.55,427.16 L 288.47,427.83 L 286.11,427.64 L 284.73,427.23 L 283.32,426.75 L 282.56,426.43 L 281.00,425.73 L 280.16,425.29 L 278.43,424.36 L 277.49,423.81 L 275.58,422.64 L 274.55,421.97 L 271.56,420.04 L 269.77,418.91 L 269.04,418.46 L 267.69,417.64 L 267.25,417.39 L 266.53,417.00 L 266.47,417.00 L 266.29,417.54 L 266.18,418.40 L 266.14,419.02 L 266.06,420.39 L 266.04,421.22 L 266.00,422.95 L 266.00,423.89 L 265.92,427.02 L 265.79,428.66 L 265.68,429.26 L 265.44,430.33 L 265.27,430.66 L 264.91,431.21 L 264.68,431.29 L 263.39,431.36 L 262.00,431.22 L 261.11,431.08 L 259.22,430.74 L 258.14,430.51 L 255.92,430.02 L 254.76,429.74 L 250.02,428.50 L 247.92,427.84 L 245.90,427.18 L 245.05,426.86 L 243.47,426.24 L 242.92,425.96 L 239.89,424.07 L 238.11,422.60 L 237.33,421.77 L 235.84,420.04 L 235.21,419.10 L 234.03,417.17 L 233.54,416.14 L 232.66,414.03 L 232.32,412.92 L 231.73,410.68 L 231.54,409.51 L 231.24,407.17 L 231.19,405.97 L 231.18,403.57 L 231.28,402.35 L 231.54,399.92 L 231.78,398.71 L 232.33,396.29 L 232.71,395.10 L 233.54,392.73 L 234.06,391.58 L 235.17,389.30 L 235.82,388.21 L 237.20,386.06 L 237.99,385.04 L 239.63,383.05 L 240.56,382.13 L 242.47,380.33 L 243.53,379.53 L 245.70,377.97 L 246.89,377.30 L 251.03,374.66 L 252.38,373.69 L 252.97,373.24 L 254.09,372.35 L 254.50,371.98 L 256.03,370.69 L 257.30,369.69 L 258.00,369.16 L 260.90,367.01 L 262.19,366.14 L 265.72,363.38 L 268.04,361.17 L 269.21,359.86 L 271.53,357.11 L 272.72,355.51 L 275.09,352.16 L 276.31,350.25 L 278.63,347.25 L 279.34,346.55 L 279.64,346.34 L 280.19,346.00 L 280.38,346.00 L 282.34,345.33 L 283.89,344.32 L 284.66,343.63 L 286.16,342.18 L 286.78,341.40 L 287.88,339.84 L 288.15,339.12 L 288.69,337.31 L 289.14,335.48 L 289.40,334.33 L 289.94,331.92 L 290.21,330.59 L 290.75,327.88 L 291.01,326.50 L 292.78,318.42 L 294.24,312.95 L 295.11,310.18 L 296.94,304.63 L 297.99,301.84 L 300.18,296.23 L 301.40,293.41 L 303.94,287.76 L 305.33,284.93 L 308.20,279.27 L 309.76,276.44 L 312.96,270.79 L 314.68,267.97 L 318.20,262.35 L 320.08,259.56 L 322.78,255.57 L 324.46,253.14 L 325.28,251.99 L 328.51,247.52 L 330.28,245.21 L 332.10,242.87 L 333.10,241.62 L 335.17,239.04 L 336.34,237.62 L 338.76,234.68 L 340.15,233.02 L 343.03,229.57 L 344.68,227.61 L 346.65,225.81 L 347.20,225.51 L 347.42,225.48 L 347.82,225.48 L 347.93,225.61 L 348.14,226.66 L 348.15,227.98 L 348.10,228.88 L 347.95,230.81 L 347.82,231.93 L 347.53,234.26 L 347.33,235.50 L 346.67,240.59 L 346.42,243.72 L 346.38,245.15 L 346.37,247.95 L 346.46,249.23 L 346.70,251.70 L 346.92,252.82 L 347.42,254.99 L 347.76,255.97 L 348.51,257.84 L 348.99,258.68 L 350.00,260.28 L 350.60,260.99 L 351.88,262.33 L 352.61,262.91 L 354.60,264.16 L 356.01,264.74 L 356.79,264.89 L 358.38,265.10 L 359.27,265.06 L 361.11,264.89 L 362.15,264.66 L 364.30,264.10 L 365.51,263.67 L 368.04,262.71 L 369.46,262.07 L 372.43,260.69 L 374.09,259.84 L 377.56,258.02 L 379.50,256.94 L 393.55,248.69 L 402.86,242.75 L 407.45,239.59 L 416.60,233.14 L 421.09,229.73 L 430.02,222.81 L 434.38,219.20 L 443.03,211.87 L 447.22,208.06 L 455.51,200.38 L 459.51,196.42 L 467.38,188.43 L 471.14,184.34 L 478.53,176.11 L 482.02,171.91 L 485.61,167.52 L 488.12,164.37 L 489.39,162.72 L 494.53,156.04 L 496.90,152.82 L 499.23,149.65 L 500.28,148.18 L 502.32,145.31 L 503.19,144.05 L 504.82,141.64 L 505.44,140.66 L 506.56,138.87 L 506.88,138.25 L 507.59,137.06 L 508.01,136.50 L 508.19,136.34 L 508.53,136.10 L 508.68,136.09 L 508.95,136.16 L 509.05,136.31 L 509.25,136.69 L 509.31,137.00 L 509.42,137.68 L 509.45,138.13 L 509.48,139.12 L 509.46,139.72 L 509.40,141.00 L 509.34,141.75 L 509.45,146.52 L 510.07,149.22 L 510.68,150.36 L 512.11,152.53 L 513.14,153.45 L 515.43,155.20 L 516.92,155.96 L 520.58,157.45 L 522.84,157.91 L 523.97,157.87 L 526.26,157.62 L 527.52,157.22 L 530.14,156.24 L 531.68,155.47 L 535.48,153.08 L 536.86,152.01 L 537.59,151.37 L 539.09,150.04 L 539.91,149.25 L 541.58,147.61 L 542.49,146.66 L 544.37,144.68 L 545.40,143.54 L 547.53,141.18 L 548.70,139.85 L 551.11,137.07 L 552.43,135.52 L 555.92,131.77 L 558.47,129.35 L 559.84,128.18 L 562.65,125.89 L 564.14,124.80 L 567.18,122.66 L 568.77,121.66 L 575.31,117.81 L 578.79,116.19 L 582.30,114.64 L 584.09,113.95 L 587.68,112.63 L 589.50,112.06 L 592.76,111.23 L 595.29,110.73 L 596.66,110.50 L 602.38,109.71 L 605.18,109.47 L 607.94,109.27 L 609.21,109.22 L 611.66,109.15 L 612.69,109.17 L 614.63,109.25 L 615.33,109.36 L 616.55,109.60 L 616.83,109.80 L 617.31,110.60 L 617.29,111.47 L 617.09,112.13 L 616.56,113.64 L 616.08,114.71 L 615.56,115.83 L 615.25,116.48 L 614.58,117.85 L 614.18,118.64 L 612.41,122.42 L 611.16,125.34 L 610.55,126.87 L 609.34,129.95 L 608.81,131.42 L 607.79,134.30 L 607.41,135.53 L 606.58,138.29 L 606.11,139.95 L 605.93,140.72 L 605.28,143.69 L 605.09,145.25 L 604.91,146.85 L 604.85,147.72 L 604.75,149.52 L 604.71,150.55 L 604.66,152.68 L 604.65,153.92 L 604.64,156.50 L 604.64,158.00 L 604.72,163.66 L 604.86,167.05 L 604.98,168.59 L 605.27,171.59 L 605.47,172.99 L 605.93,175.74 L 606.24,177.07 L 606.90,179.72 L 607.32,181.05 L 608.23,183.74 L 608.79,185.14 L 609.97,188.01 L 610.67,189.55 L 612.16,192.74 L 613.02,194.50 L 615.33,198.98 L 616.84,201.71 L 617.61,202.98 L 620.77,207.86 L 622.63,210.19 L 624.55,212.52 L 625.62,213.72 L 627.85,216.14 L 629.11,217.42 L 631.74,220.03 L 633.23,221.44 L 636.34,224.36 L 638.10,225.97 L 647.16,234.51 L 652.68,240.03 L 655.19,242.72 L 660.07,248.06 L 662.30,250.68 L 666.60,255.91 L 668.55,258.50 L 673.89,266.02 L 677.37,271.29 L 678.83,273.66 L 680.23,275.96 L 680.82,276.98 L 681.91,278.90 L 682.30,279.68 L 682.99,281.08 L 683.15,281.54 L 683.35,282.27 L 683.23,282.34 L 682.46,282.64 L 681.52,282.93 L 680.89,283.12 L 679.53,283.50 L 678.75,283.71 L 677.13,284.15 L 676.27,284.36 L 670.96,286.07 L 667.81,287.49 L 666.37,288.38 L 663.55,290.29 L 662.21,291.47 L 659.54,293.99 L 658.20,295.51 L 654.30,300.81 L 652.37,304.47 L 651.73,306.45 L 650.64,310.50 L 650.38,312.75 L 650.18,315.04 L 650.14,316.25 L 650.11,318.71 L 650.16,320.03 L 650.46,324.65 L 650.78,327.12 L 651.04,328.21 L 651.64,330.35 L 652.09,331.48 L 653.09,333.81 L 653.79,335.22 L 657.10,340.71 L 659.75,344.04 L 661.28,345.52 L 664.47,348.36 L 666.26,349.58 L 669.97,351.90 L 672.00,352.85 L 675.11,354.15 L 677.05,354.75 L 678.08,354.94 L 680.22,355.26 L 681.51,355.34 L 684.27,355.46 L 686.02,355.46 L 690.27,355.31 L 692.91,355.02 L 694.15,354.78 L 696.60,354.22 L 697.78,353.82 L 700.10,352.96 L 701.23,352.40 L 703.49,351.19 L 704.62,350.45 L 706.88,348.87 L 708.03,347.93 L 710.36,345.94 L 711.57,344.79 L 714.03,342.37 L 715.33,340.99 L 725.63,329.00 L 731.80,320.71 L 734.53,316.44 L 739.76,307.79 L 742.02,303.34 L 746.29,294.35 L 748.07,289.74 L 751.39,280.43 L 752.68,275.67 L 755.03,266.07 L 755.84,261.17 L 757.21,251.29 L 757.53,246.26 L 757.91,236.14 L 757.73,231.00 L 757.25,220.46 L 756.84,214.10 L 756.58,211.21 L 756.02,205.61 L 755.67,203.04 L 754.93,198.06 L 754.49,195.76 L 753.55,191.26 L 753.00,189.16 L 751.83,185.02 L 751.16,183.05 L 749.74,179.14 L 748.93,177.22 L 747.23,173.41 L 746.27,171.49 L 744.97,168.73 L 744.07,166.68 L 743.64,165.64 L 742.80,163.57 L 742.44,162.61 L 741.76,160.76 L 741.52,160.00 L 739.65,155.01 L 738.19,152.02 L 737.20,150.47 L 736.16,148.90 L 735.56,148.07 L 734.28,146.35 L 733.53,145.41 L 731.96,143.46 L 731.04,142.37 L 729.13,140.12 L 728.02,138.84 L 724.68,134.96 L 722.31,132.17 L 721.14,130.78 L 718.85,128.05 L 717.84,126.82 L 715.91,124.48 L 715.18,123.57 L 709.38,117.09 L 705.02,112.88 L 702.62,110.85 L 697.68,106.83 L 695.00,104.91 L 689.52,101.12 L 686.59,99.34 L 682.86,97.00 L 680.98,95.73 L 680.36,95.24 L 679.32,94.34 L 679.12,94.03 L 678.95,93.50 L 679.20,93.36 L 679.93,93.17 M 677.12,663.98 L 682.74,664.18 L 685.76,664.44 L 691.96,665.06 L 695.35,665.52 L 701.80,666.49 L 705.47,667.18 L 707.03,667.57 L 710.01,668.42 L 711.30,668.93 L 713.75,670.04 L 714.83,670.72 L 716.92,672.19 L 717.89,673.09 L 719.78,675.03 L 720.71,676.21 L 722.57,678.71 L 723.55,680.21 L 725.54,683.39 L 726.65,685.27 L 728.58,688.37 L 729.86,690.27 L 730.46,691.07 L 731.60,692.56 L 732.07,693.08 L 732.93,693.96 L 733.20,694.11 L 734.30,695.10 L 734.55,695.65 L 734.64,696.05 L 734.80,696.93 L 734.85,697.55 L 734.94,698.90 L 734.96,699.79 L 734.98,701.73 L 734.97,702.96 L 734.94,705.61 L 734.91,707.25 L 734.84,710.73 L 734.80,712.84 L 734.66,718.26 L 734.56,721.32 L 734.50,722.61 L 734.38,725.06 L 734.30,726.11 L 734.13,728.10 L 734.03,728.97 L 733.53,732.19 L 733.14,733.68 L 732.27,736.68 L 731.64,738.50 L 728.61,745.96 L 726.18,750.79 L 724.76,753.14 L 721.76,757.81 L 720.05,760.09 L 716.47,764.61 L 714.45,766.83 L 710.27,771.22 L 707.95,773.38 L 703.15,777.67 L 700.51,779.78 L 695.07,783.98 L 692.11,786.06 L 686.02,790.19 L 682.72,792.24 L 676.14,796.10 L 671.60,798.56 L 669.26,799.72 L 659.78,804.17 L 654.91,806.08 L 645.13,809.67 L 640.27,811.08 L 635.43,812.43 L 633.04,813.00 L 628.29,814.07 L 625.97,814.49 L 622.54,815.04 L 620.56,815.28 L 616.43,815.71 L 614.17,815.88 L 609.56,816.20 L 607.15,816.31 L 602.28,816.49 L 599.82,816.54 L 594.90,816.60 L 592.50,816.57 L 587.77,816.50 L 585.54,816.41 L 581.21,816.19 L 579.27,816.03 L 575.55,815.67 L 574.00,815.44 L 563.35,813.52 L 556.25,811.94 L 552.85,811.04 L 546.19,809.17 L 543.18,808.17 L 540.22,807.16 L 538.85,806.65 L 536.18,805.62 L 534.98,805.10 L 526.44,800.91 L 520.79,797.63 L 518.01,795.78 L 512.49,791.93 L 509.80,789.82 L 504.50,785.49 L 501.95,783.16 L 496.94,778.41 L 494.58,775.91 L 489.95,770.82 L 487.82,768.18 L 483.66,762.84 L 481.79,760.09 L 478.18,754.57 L 476.62,751.76 L 475.23,748.97 L 474.25,746.73 L 473.75,745.48 L 471.76,740.22 L 470.90,737.58 L 470.07,734.98 L 469.72,733.78 L 469.07,731.46 L 468.84,730.48 L 468.44,728.64 L 468.35,727.97 L 468.27,726.82 L 468.36,726.56 L 468.62,726.51 L 468.92,726.80 L 469.13,727.12 L 469.61,727.88 L 469.93,728.44 L 470.61,729.71 L 471.03,730.55 L 471.93,732.36 L 472.47,733.48 L 473.62,735.88 L 474.29,737.31 L 475.69,740.33 L 476.49,742.09 L 478.18,745.76 L 479.13,747.86 L 479.97,749.67 L 480.46,750.68 L 480.68,751.10 L 481.50,752.53 L 481.85,752.94 L 482.54,753.59 L 482.88,753.69 L 483.59,753.74 L 484.01,753.61 L 487.93,752.40 L 488.99,752.31 L 489.61,752.58 L 489.91,752.91 L 490.53,753.73 L 490.88,754.39 L 491.62,755.89 L 492.07,756.94 L 493.49,759.82 L 494.55,761.56 L 495.17,762.36 L 496.49,763.91 L 497.27,764.64 L 498.93,766.07 L 499.93,766.77 L 502.03,768.16 L 503.29,768.86 L 505.93,770.26 L 507.49,770.99 L 510.78,772.49 L 512.70,773.29 L 516.72,774.94 L 519.04,775.84 L 523.35,777.51 L 526.03,778.53 L 527.30,779.00 L 532.14,780.77 L 534.32,781.50 L 538.55,782.86 L 540.53,783.42 L 544.41,784.44 L 546.32,784.85 L 550.13,785.59 L 552.10,785.88 L 556.11,786.40 L 558.29,786.60 L 562.78,786.95 L 565.29,787.09 L 570.53,787.33 L 573.52,787.44 L 576.97,787.55 L 579.07,787.62 L 580.02,787.65 L 583.59,787.75 L 585.07,787.78 L 587.83,787.81 L 588.97,787.80 L 591.13,787.75 L 592.05,787.69 L 595.41,787.35 L 596.99,787.00 L 598.60,786.62 L 599.49,786.38 L 601.34,785.86 L 602.42,785.55 L 606.72,784.40 L 610.08,783.58 L 611.86,783.17 L 615.45,782.37 L 617.18,782.02 L 620.58,781.34 L 622.06,781.08 L 632.39,778.63 L 639.40,776.39 L 642.90,775.00 L 649.89,772.06 L 653.31,770.36 L 660.09,766.81 L 663.34,764.86 L 669.73,760.84 L 672.71,758.68 L 678.51,754.30 L 681.12,752.00 L 686.15,747.36 L 688.30,744.99 L 690.40,742.61 L 691.34,741.41 L 693.17,739.01 L 693.97,737.81 L 696.38,733.85 L 697.75,731.22 L 698.33,729.91 L 699.40,727.31 L 699.82,726.02 L 700.60,723.46 L 700.87,722.20 L 701.35,719.69 L 701.48,718.47 L 701.67,716.04 L 701.66,714.86 L 701.56,712.52 L 701.41,711.39 L 701.03,709.17 L 700.74,708.10 L 700.09,706.00 L 699.66,705.00 L 698.74,703.04 L 698.18,702.13 L 696.99,700.33 L 696.30,699.49 L 694.85,697.87 L 694.02,697.14 L 692.31,695.71 L 691.37,695.07 L 689.40,693.86 L 688.33,693.33 L 686.12,692.34 L 684.93,691.94 L 682.47,691.20 L 681.16,690.92 L 675.92,690.17 L 672.22,689.95 L 670.30,689.98 L 666.41,690.13 L 664.42,690.33 L 660.44,690.82 L 658.44,691.19 L 654.45,692.00 L 652.49,692.53 L 648.60,693.65 L 646.73,694.32 L 643.03,695.74 L 641.29,696.55 L 637.87,698.24 L 636.31,699.18 L 633.17,701.33 L 630.94,703.10 L 629.77,704.12 L 625.06,708.52 L 622.78,710.99 L 618.35,716.03 L 616.51,718.49 L 614.75,720.92 L 614.02,722.07 L 612.66,724.32 L 612.16,725.34 L 608.87,732.00 L 569.94,732.00 L 562.02,731.98 L 557.02,731.95 L 554.68,731.93 L 550.13,731.88 L 548.07,731.85 L 544.07,731.78 L 542.32,731.74 L 538.98,731.66 L 537.59,731.61 L 535.00,731.52 L 534.03,731.47 L 532.29,731.36 L 531.78,731.30 L 531.00,731.18 L 531.00,731.12 L 531.37,730.48 L 531.96,729.80 L 532.40,729.37 L 533.34,728.46 L 533.91,727.96 L 535.10,726.93 L 535.75,726.40 L 537.11,725.22 L 538.38,724.08 L 539.18,723.35 L 540.86,721.79 L 541.84,720.87 L 543.87,718.96 L 545.00,717.89 L 547.31,715.68 L 548.55,714.50 L 551.08,712.07 L 552.40,710.79 L 557.81,705.54 L 560.57,702.83 L 580.63,683.10 L 598.57,683.28 L 616.50,683.45 L 629.50,676.85 L 638.32,672.60 L 643.81,670.23 L 646.42,669.26 L 651.56,667.47 L 654.07,666.78 L 659.05,665.53 L 661.55,665.10 L 666.56,664.37 L 669.14,664.18 L 674.36,663.93 M 305.00,448.99 L 304.77,450.18 L 304.41,451.63 L 304.15,452.60 L 303.58,454.71 L 303.24,455.92 L 302.51,458.45 L 302.11,459.78 L 300.27,466.17 L 299.23,470.00 L 298.80,471.76 L 297.98,475.18 L 297.65,476.79 L 297.03,479.96 L 296.79,481.51 L 296.00,487.64 L 295.81,490.95 L 295.65,494.33 L 295.60,496.15 L 295.54,499.92 L 295.54,502.00 L 295.63,508.16 L 295.78,511.91 L 295.91,513.64 L 296.21,517.00 L 296.42,518.56 L 296.88,521.61 L 297.18,523.06 L 298.56,528.62 L 299.56,531.28 L 301.78,536.56 L 303.26,539.33 L 306.49,544.56 L 309.04,547.95 L 310.48,549.59 L 313.48,552.81 L 315.13,554.33 L 318.52,557.33 L 320.34,558.73 L 324.06,561.46 L 326.02,562.71 L 330.02,565.13 L 332.09,566.20 L 336.29,568.26 L 338.45,569.13 L 342.79,570.77 L 345.00,571.42 L 353.64,573.29 L 359.74,573.94 L 362.95,573.97 L 369.51,573.83 L 372.96,573.46 L 379.99,572.52 L 383.69,571.76 L 391.20,570.02 L 395.15,568.85 L 403.16,566.32 L 407.36,564.75 L 415.90,561.41 L 420.36,559.44 L 429.42,555.30 L 434.16,552.92 L 438.01,551.01 L 440.31,549.89 L 441.25,549.45 L 442.97,548.64 L 443.54,548.39 L 444.05,548.17 L 444.22,548.10 L 444.49,548.00 L 444.53,548.00 L 444.45,548.21 L 444.22,548.55 L 444.02,548.81 L 443.56,549.40 L 443.25,549.77 L 442.59,550.56 L 442.20,551.03 L 440.45,553.08 L 439.36,554.31 L 437.08,556.90 L 435.80,558.32 L 429.37,565.77 L 425.33,570.79 L 423.42,573.34 L 419.68,578.47 L 417.92,581.08 L 414.48,586.33 L 412.86,589.02 L 409.69,594.42 L 408.20,597.19 L 405.29,602.76 L 403.93,605.63 L 401.27,611.40 L 400.02,614.37 L 397.59,620.37 L 396.46,623.46 L 392.38,635.70 L 390.12,643.76 L 389.21,647.73 L 387.54,655.63 L 386.93,659.52 L 385.87,667.27 L 385.56,671.08 L 385.09,678.66 L 385.09,682.38 L 385.22,689.78 L 385.52,693.42 L 386.26,700.64 L 386.85,704.18 L 388.20,711.21 L 389.10,714.66 L 391.10,721.49 L 392.69,726.22 L 393.59,728.62 L 395.44,733.42 L 396.44,735.79 L 398.48,740.50 L 399.54,742.75 L 401.69,747.19 L 402.78,749.25 L 404.95,753.26 L 406.02,755.04 L 408.14,758.44 L 409.15,759.86 L 411.14,762.50 L 412.06,763.47 L 414.44,766.20 L 415.74,767.96 L 416.28,768.86 L 417.29,770.68 L 417.71,771.66 L 418.51,773.68 L 418.87,774.82 L 419.37,776.49 L 419.56,777.25 L 419.92,778.71 L 420.04,779.30 L 420.23,780.39 L 420.25,780.75 L 420.24,781.33 L 420.15,781.38 L 419.80,781.34 L 419.39,781.19 L 419.10,781.06 L 417.73,780.38 L 416.77,779.85 L 414.66,778.66 L 413.40,777.92 L 410.75,776.34 L 409.29,775.44 L 406.27,773.58 L 404.69,772.58 L 401.50,770.55 L 399.89,769.51 L 396.70,767.42 L 395.16,766.38 L 392.14,764.34 L 390.77,763.38 L 373.54,750.54 L 362.47,741.50 L 357.14,736.74 L 346.63,727.07 L 341.60,722.01 L 331.68,711.77 L 326.94,706.44 L 317.63,695.65 L 313.20,690.07 L 304.52,678.78 L 300.42,672.96 L 292.39,661.22 L 288.63,655.18 L 281.27,643.02 L 277.85,636.79 L 271.19,624.24 L 268.13,617.84 L 262.18,604.96 L 259.49,598.40 L 254.28,585.22 L 251.97,578.53 L 247.53,565.08 L 245.60,558.28 L 241.94,544.62 L 240.42,537.72 L 237.57,523.88 L 236.45,516.90 L 234.43,502.92 L 233.74,495.89 L 232.56,481.81 L 232.30,474.75 L 232.18,471.46 L 232.10,469.48 L 232.07,468.60 L 231.97,465.34 L 231.96,464.09 L 231.99,461.81 L 232.07,460.99 L 232.28,459.56 L 232.48,459.11 L 232.94,458.37 L 233.29,458.22 L 234.07,458.04 L 234.60,458.11 L 235.75,458.35 L 236.49,458.57 L 238.09,459.08 L 239.07,459.39 L 245.93,461.31 L 250.27,462.25 L 252.44,462.58 L 256.81,463.13 L 259.12,463.28 L 263.87,463.49 L 266.50,463.48 L 270.03,463.47 L 272.00,463.43 L 272.83,463.40 L 274.41,463.31 L 275.10,463.24 L 276.42,463.08 L 277.03,462.96 L 279.35,462.38 L 280.61,461.88 L 281.92,461.34 L 282.66,461.01 L 284.21,460.29 L 285.12,459.86 L 288.56,458.13 L 291.06,456.79 L 292.30,456.09 L 294.77,454.67 L 295.89,453.99 L 298.03,452.66 L 298.87,452.09 L 301.25,450.56 L 302.64,449.74 L 303.20,449.46 L 304.21,448.99 L 304.52,448.91 L 305.00,448.85 M 509.21,309.08 L 513.86,309.34 L 516.17,309.63 L 520.77,310.34 L 523.03,310.86 L 527.53,312.00 L 529.71,312.73 L 534.03,314.30 L 536.10,315.23 L 540.18,317.20 L 542.11,318.33 L 545.88,320.69 L 547.63,322.01 L 550.23,324.24 L 551.98,325.99 L 552.85,326.98 L 556.30,331.23 L 557.91,333.67 L 561.03,338.70 L 562.35,341.35 L 564.81,346.68 L 565.68,349.29 L 566.53,351.90 L 567.00,353.47 L 567.18,354.21 L 567.83,357.11 L 568.01,358.77 L 568.18,360.48 L 568.24,361.47 L 568.34,363.54 L 568.37,364.76 L 568.42,367.34 L 568.44,368.86 L 568.46,372.09 L 568.46,374.00 L 568.41,380.51 L 568.30,384.43 L 568.20,386.24 L 567.96,389.78 L 567.79,391.46 L 567.40,394.78 L 567.14,396.41 L 566.56,399.67 L 566.20,401.34 L 565.42,404.71 L 564.95,406.50 L 563.93,410.15 L 563.33,412.13 L 562.06,416.23 L 561.31,418.50 L 558.72,425.73 L 556.76,430.62 L 555.66,433.07 L 553.40,438.00 L 552.17,440.46 L 549.63,445.38 L 548.27,447.83 L 542.56,457.58 L 539.38,462.30 L 532.82,471.61 L 529.29,476.00 L 527.82,477.75 L 526.63,479.11 L 525.96,479.86 L 523.05,483.05 L 521.37,484.82 L 517.93,488.43 L 516.14,490.25 L 512.56,493.85 L 510.86,495.50 L 503.67,502.26 L 499.97,505.50 L 496.29,508.69 L 494.51,510.17 L 491.01,513.07 L 489.39,514.36 L 486.24,516.82 L 484.86,517.84 L 482.24,519.72 L 481.19,520.40 L 480.19,521.04 L 479.76,521.28 L 478.96,521.72 L 478.64,521.85 L 478.07,522.07 L 477.88,522.10 L 477.55,522.08 L 477.49,521.98 L 477.50,521.61 L 477.65,521.22 L 477.78,520.97 L 478.50,519.77 L 479.07,518.98 L 480.34,517.27 L 481.13,516.30 L 482.82,514.28 L 483.77,513.22 L 490.28,505.77 L 494.41,500.85 L 496.37,498.41 L 500.23,493.55 L 502.05,491.13 L 505.63,486.30 L 507.32,483.91 L 513.80,474.34 L 516.65,469.59 L 522.10,460.10 L 524.44,455.36 L 528.87,445.88 L 530.71,441.11 L 534.17,431.57 L 535.54,426.74 L 538.05,417.06 L 538.97,412.15 L 540.57,402.26 L 541.05,397.22 L 541.61,387.42 L 541.59,381.17 L 541.39,378.18 L 540.85,372.30 L 540.39,369.50 L 539.34,363.99 L 538.61,361.37 L 537.04,356.23 L 536.06,353.79 L 533.96,349.02 L 532.72,346.77 L 530.11,342.35 L 528.60,340.29 L 525.47,336.24 L 523.71,334.35 L 519.92,330.57 L 517.38,328.32 L 516.08,327.31 L 513.47,325.39 L 512.12,324.55 L 509.39,322.93 L 507.96,322.23 L 505.06,320.89 L 503.52,320.32 L 500.39,319.24 L 498.73,318.79 L 495.32,317.94 L 493.49,317.60 L 489.76,316.95 L 487.75,316.70 L 484.35,316.21 L 482.36,315.87 L 481.57,315.71 L 480.13,315.38 L 479.69,315.24 L 479.00,314.97 L 479.00,314.87 L 479.38,314.47 L 479.98,314.14 L 480.44,313.95 L 481.45,313.55 L 482.09,313.34 L 483.44,312.90 L 484.22,312.68 L 487.57,311.75 L 489.49,311.31 L 493.43,310.43 L 495.43,310.07 L 502.27,309.22 L 506.89,309.01 M 332.39,303.79 L 331.95,304.27 L 331.63,304.67 L 330.92,305.56 L 330.48,306.15 L 329.55,307.39 L 329.01,308.13 L 327.90,309.66 L 327.28,310.52 L 326.03,312.28 L 325.37,313.22 L 322.63,317.14 L 321.22,319.19 L 318.41,323.32 L 317.09,325.28 L 314.55,329.11 L 313.50,330.73 L 312.49,332.30 L 312.07,332.99 L 311.27,334.27 L 310.96,334.79 L 310.42,335.74 L 310.25,336.06 L 310.00,336.60 L 310.00,336.69 L 310.37,337.36 L 310.96,338.12 L 311.39,338.62 L 312.32,339.70 L 312.89,340.31 L 314.07,341.57 L 314.72,342.23 L 316.02,343.50 L 316.63,344.06 L 317.82,345.11 L 318.33,345.52 L 319.29,346.25 L 319.64,346.45 L 320.24,346.75 L 320.37,346.71 L 320.69,346.18 L 321.02,345.40 L 321.23,344.82 L 321.69,343.54 L 321.96,342.73 L 322.52,341.03 L 322.83,340.05 L 323.47,338.00 L 323.82,336.87 L 324.52,334.56 L 324.89,333.33 L 326.39,328.25 L 327.14,325.62 L 328.64,320.34 L 329.32,317.85 L 329.99,315.39 L 330.29,314.23 L 330.89,311.98 L 331.15,310.96 L 331.65,308.99 L 331.85,308.14 L 332.23,306.54 L 332.37,305.90 L 332.60,304.74 L 332.66,304.35 L 332.73,303.70 L 332.70,303.61 Z" fill="rgb(0,0,0)"/>
<path d="M 0.00,512.00 L 0.00,0.00 L 512.00,0.00 L 1024.00,0.00 L 1024.00,512.00 L 1024.00,1024.00 L 512.00,1024.00 L 0.00,1024.00 L 0.00,512.00 M 543.60,992.98 L 549.53,992.51 L 561.30,991.25 L 567.17,990.58 L 578.84,988.91 L 584.66,988.02 L 596.22,985.94 L 601.98,984.84 L 613.42,982.35 L 619.13,981.05 L 630.45,978.15 L 636.09,976.65 L 647.27,973.35 L 652.84,971.65 L 663.89,967.94 L 669.39,966.04 L 680.28,961.94 L 685.71,959.84 L 696.44,955.34 L 701.79,953.05 L 712.35,948.16 L 717.62,945.67 L 728.01,940.39 L 733.18,937.71 L 743.40,932.05 L 748.48,929.17 L 758.50,923.13 L 763.49,920.06 L 773.31,913.64 L 778.20,910.38 L 787.81,903.59 L 802.00,892.97 L 807.08,889.02 L 817.00,880.83 L 821.91,876.69 L 831.48,868.11 L 836.22,863.78 L 845.43,854.84 L 849.99,850.33 L 858.84,841.05 L 863.22,836.37 L 871.68,826.75 L 875.87,821.91 L 883.94,811.99 L 887.93,806.99 L 895.60,796.77 L 899.39,791.63 L 906.64,781.13 L 910.22,775.85 L 917.05,765.10 L 920.41,759.69 L 926.80,748.70 L 929.94,743.17 L 935.88,731.95 L 938.80,726.32 L 944.28,714.89 L 946.96,709.16 L 951.96,697.54 L 954.41,691.71 L 958.93,679.92 L 961.13,674.01 L 965.15,662.07 L 970.61,644.00 L 971.09,642.28 L 972.01,639.01 L 972.45,637.43 L 973.23,634.66 L 973.59,633.37 L 974.14,631.42 L 974.26,630.99 L 974.44,630.36 L 974.62,629.75 L 974.76,629.27 L 974.72,628.51 L 974.25,628.00 L 974.13,628.00 L 973.72,628.45 L 973.50,628.75 L 972.94,629.69 L 972.65,630.21 L 972.00,631.52 L 971.02,633.75 L 970.13,635.95 L 968.15,640.47 L 967.14,642.75 L 964.93,647.40 L 962.67,652.09 L 957.54,661.77 L 954.89,666.65 L 949.05,676.56 L 946.06,681.52 L 939.65,691.47 L 936.39,696.43 L 929.53,706.22 L 926.06,711.08 L 918.89,720.51 L 915.27,725.17 L 907.91,734.06 L 896.79,746.56 L 892.19,751.48 L 882.92,760.81 L 878.27,765.39 L 868.87,774.08 L 864.14,778.35 L 854.56,786.43 L 849.74,790.41 L 839.93,797.93 L 834.99,801.62 L 824.88,808.62 L 819.79,812.06 L 809.35,818.57 L 804.08,821.78 L 793.25,827.84 L 776.50,836.49 L 773.83,837.80 L 769.00,840.12 L 766.65,841.24 L 762.34,843.24 L 760.24,844.21 L 756.27,845.98 L 754.31,846.83 L 750.49,848.43 L 746.68,850.00 L 738.77,852.95 L 736.70,853.69 L 732.27,855.23 L 725.00,857.68 L 717.41,860.20 L 702.07,864.56 L 694.38,866.62 L 678.88,870.06 L 671.11,871.67 L 655.48,874.19 L 647.65,875.34 L 631.92,876.94 L 624.05,877.63 L 608.25,878.30 L 600.35,878.53 L 584.52,878.28 L 576.61,878.04 L 560.79,876.86 L 537.09,874.04 L 529.35,872.89 L 514.21,870.02 L 506.69,868.49 L 491.97,864.86 L 484.65,862.94 L 470.28,858.50 L 463.13,856.18 L 449.06,850.93 L 442.05,848.19 L 428.19,842.09 L 421.29,838.93 L 407.60,831.96 L 400.78,828.36 L 387.19,820.50 L 366.86,807.66 L 362.75,804.93 L 354.68,799.18 L 350.66,796.26 L 342.76,790.14 L 338.84,787.04 L 331.13,780.58 L 327.31,777.31 L 319.82,770.52 L 316.10,767.08 L 308.83,759.98 L 305.23,756.39 L 298.21,749.00 L 294.73,745.27 L 287.96,737.61 L 284.61,733.75 L 278.11,725.83 L 274.90,721.84 L 268.69,713.69 L 265.62,709.59 L 259.71,701.22 L 256.80,697.02 L 251.21,688.45 L 248.45,684.15 L 243.19,675.41 L 240.61,671.02 L 235.70,662.12 L 233.29,657.65 L 228.74,648.61 L 226.51,644.07 L 222.34,634.91 L 216.52,621.05 L 214.00,614.70 L 209.51,602.21 L 207.35,595.99 L 203.56,583.65 L 201.74,577.49 L 198.62,565.18 L 197.14,559.01 L 194.66,546.57 L 193.50,540.32 L 191.63,527.61 L 190.78,521.21 L 189.51,508.09 L 188.94,501.47 L 188.24,487.81 L 187.79,466.53 L 187.77,461.89 L 187.91,453.08 L 188.01,448.73 L 188.38,440.40 L 188.59,436.28 L 189.21,428.28 L 189.55,424.31 L 190.44,416.49 L 190.92,412.59 L 192.10,404.80 L 192.72,400.89 L 194.21,392.97 L 194.99,388.98 L 196.79,380.78 L 199.89,367.99 L 201.90,360.12 L 206.62,344.65 L 209.09,336.96 L 214.69,321.88 L 217.60,314.38 L 224.07,299.72 L 227.41,292.44 L 234.72,278.22 L 238.47,271.17 L 246.58,257.44 L 250.74,250.63 L 259.63,237.42 L 264.17,230.88 L 273.81,218.20 L 278.72,211.94 L 289.08,199.85 L 294.35,193.88 L 305.41,182.40 L 311.02,176.75 L 322.74,165.91 L 328.68,160.58 L 341.03,150.42 L 347.29,145.43 L 360.25,135.99 L 366.81,131.36 L 380.35,122.65 L 387.19,118.40 L 401.28,110.47 L 408.39,106.60 L 423.01,99.48 L 445.48,89.74 L 450.43,87.77 L 460.47,84.13 L 465.52,82.36 L 475.74,79.12 L 480.87,77.55 L 491.24,74.73 L 496.44,73.36 L 506.94,70.95 L 512.21,69.79 L 522.82,67.78 L 528.14,66.82 L 538.83,65.23 L 544.19,64.48 L 554.94,63.29 L 560.33,62.75 L 571.12,61.98 L 576.53,61.65 L 587.34,61.30 L 592.74,61.17 L 603.55,61.23 L 608.95,61.32 L 619.73,61.80 L 625.11,62.09 L 635.83,62.99 L 641.19,63.49 L 651.84,64.81 L 657.15,65.53 L 667.70,67.27 L 672.96,68.20 L 683.39,70.37 L 698.88,74.10 L 700.45,74.51 L 703.42,75.24 L 704.87,75.58 L 707.39,76.13 L 708.56,76.37 L 710.34,76.67 L 710.72,76.73 L 711.30,76.79 L 711.85,76.79 L 712.10,76.74 L 711.92,76.40 L 711.73,76.19 L 710.72,75.54 L 710.12,75.18 L 708.34,74.26 L 707.36,73.77 L 704.87,72.60 L 703.54,71.99 L 700.41,70.60 L 698.77,69.88 L 695.05,68.30 L 693.12,67.49 L 688.88,65.76 L 682.00,63.00 L 677.08,61.06 L 667.21,57.44 L 662.27,55.68 L 652.32,52.42 L 647.33,50.83 L 637.25,47.90 L 632.18,46.48 L 621.92,43.88 L 616.75,42.61 L 606.25,40.33 L 600.96,39.22 L 590.18,37.23 L 584.74,36.27 L 573.62,34.57 L 556.50,32.33 L 555.34,32.20 L 552.54,31.95 L 551.07,31.83 L 547.72,31.61 L 545.98,31.50 L 542.15,31.31 L 540.19,31.22 L 535.97,31.06 L 533.82,30.99 L 529.30,30.86 L 527.01,30.80 L 522.26,30.70 L 517.47,30.61 L 507.59,30.53 L 502.66,30.51 L 492.98,30.55 L 490.60,30.58 L 486.00,30.64 L 483.74,30.68 L 479.42,30.78 L 477.30,30.83 L 473.35,30.97 L 471.43,31.04 L 467.92,31.21 L 466.24,31.30 L 463.27,31.50 L 459.50,31.85 L 457.37,32.09 L 452.53,32.71 L 450.03,33.04 L 444.64,33.81 L 439.16,34.61 L 427.54,36.49 L 424.66,36.97 L 419.04,37.94 L 416.27,38.43 L 411.04,39.39 L 408.50,39.87 L 403.91,40.79 L 398.00,42.06 L 390.73,43.74 L 376.28,47.62 L 369.07,49.65 L 354.77,54.21 L 347.64,56.58 L 333.54,61.80 L 326.52,64.50 L 312.66,70.37 L 305.77,73.38 L 292.20,79.87 L 285.46,83.20 L 272.23,90.30 L 265.66,93.92 L 252.80,101.60 L 234.00,113.76 L 229.85,116.58 L 221.69,122.44 L 217.63,125.40 L 209.64,131.53 L 205.67,134.63 L 197.87,141.02 L 193.99,144.24 L 186.38,150.89 L 182.61,154.24 L 175.20,161.13 L 171.52,164.60 L 164.33,171.73 L 160.76,175.32 L 153.78,182.66 L 150.32,186.36 L 143.57,193.92 L 140.22,197.73 L 133.71,205.50 L 130.48,209.40 L 124.21,217.36 L 121.11,221.37 L 115.10,229.52 L 112.12,233.61 L 106.37,241.93 L 103.52,246.12 L 98.04,254.61 L 95.33,258.87 L 90.12,267.52 L 87.55,271.86 L 82.63,280.65 L 75.59,294.00 L 72.32,300.44 L 66.32,313.16 L 63.41,319.50 L 58.10,332.13 L 55.53,338.45 L 50.85,351.17 L 48.58,357.56 L 44.49,370.52 L 42.51,377.06 L 38.95,390.44 L 37.23,397.19 L 34.15,411.16 L 32.66,418.22 L 30.02,432.93 L 26.48,456.00 L 26.34,457.01 L 26.08,459.40 L 25.95,460.65 L 25.71,463.48 L 25.60,464.94 L 25.38,468.14 L 25.28,469.79 L 25.09,473.31 L 24.90,476.90 L 24.61,484.82 L 24.48,488.86 L 24.30,497.33 L 24.23,501.60 L 24.17,510.18 L 24.15,514.44 L 24.22,522.69 L 24.27,526.73 L 24.47,534.19 L 24.53,535.98 L 24.68,539.35 L 24.94,544.00 L 25.25,548.75 L 26.08,558.22 L 26.53,562.94 L 27.64,572.34 L 28.23,577.03 L 29.61,586.37 L 30.33,591.02 L 31.98,600.29 L 32.84,604.91 L 34.75,614.09 L 35.74,618.67 L 37.92,627.78 L 39.04,632.32 L 41.48,641.33 L 42.73,645.83 L 45.43,654.75 L 46.81,659.20 L 49.76,668.03 L 51.27,672.43 L 54.48,681.16 L 56.11,685.51 L 59.56,694.13 L 61.32,698.43 L 65.02,706.94 L 66.90,711.18 L 70.85,719.58 L 72.85,723.76 L 77.03,732.04 L 79.16,736.16 L 83.58,744.31 L 85.82,748.37 L 90.48,756.39 L 92.84,760.38 L 97.73,768.27 L 100.20,772.19 L 105.32,779.94 L 107.91,783.80 L 113.26,791.40 L 115.96,795.18 L 121.53,802.63 L 124.34,806.34 L 130.13,813.64 L 133.05,817.27 L 139.06,824.41 L 142.10,827.96 L 148.32,834.93 L 151.46,838.40 L 157.90,845.21 L 161.14,848.59 L 167.79,855.22 L 171.14,858.52 L 177.99,864.97 L 181.44,868.18 L 188.50,874.45 L 192.05,877.56 L 199.31,883.65 L 202.97,886.67 L 210.42,892.56 L 214.17,895.48 L 221.83,901.18 L 225.68,904.00 L 233.52,909.49 L 245.50,917.50 L 252.66,922.14 L 267.50,930.87 L 274.99,935.14 L 290.42,943.11 L 298.19,947.00 L 314.09,954.16 L 322.09,957.64 L 338.36,963.97 L 346.53,967.02 L 363.05,972.46 L 371.34,975.06 L 388.02,979.58 L 396.37,981.71 L 413.08,985.26 L 438.09,989.45 L 442.04,990.00 L 450.51,990.95 L 454.81,991.40 L 463.82,992.16 L 468.36,992.52 L 477.68,993.09 L 482.36,993.35 L 491.76,993.71 L 496.46,993.87 L 505.73,994.03 L 510.33,994.08 L 519.25,994.01 L 523.65,993.96 L 531.99,993.67 L 536.07,993.50 M 532.33,824.34 L 532.42,824.25 L 532.25,823.93 L 532.12,823.76 L 531.55,823.31 L 531.23,823.08 L 530.35,822.57 L 528.76,821.78 L 527.44,821.19 L 525.31,820.03 L 524.34,819.45 L 522.89,818.31 L 522.25,817.74 L 521.47,816.60 L 521.00,814.85 L 521.00,814.53 L 520.64,813.86 L 520.39,813.52 L 519.51,812.78 L 519.00,812.40 L 517.57,811.56 L 514.75,810.18 L 513.66,809.68 L 511.37,808.45 L 510.21,807.79 L 507.78,806.22 L 506.54,805.39 L 503.92,803.46 L 502.59,802.45 L 499.77,800.14 L 498.33,798.94 L 495.29,796.24 L 493.74,794.83 L 490.45,791.71 L 488.77,790.10 L 485.20,786.54 L 479.52,780.69 L 478.21,779.32 L 475.94,776.90 L 474.85,775.75 L 473.00,773.72 L 472.12,772.76 L 470.65,771.09 L 469.96,770.29 L 468.84,768.93 L 468.32,768.28 L 467.52,767.19 L 467.16,766.67 L 466.64,765.80 L 466.42,765.39 L 466.15,764.71 L 466.00,763.84 L 466.00,763.27 L 465.78,761.98 L 465.63,761.30 L 465.09,759.72 L 464.78,758.89 L 463.88,756.92 L 462.08,753.43 L 462.00,753.28 L 461.61,752.64 L 461.38,752.28 L 460.76,751.30 L 458.39,747.71 L 457.29,746.06 L 455.61,742.37 L 455.23,741.40 L 454.59,739.27 L 454.29,738.18 L 453.80,735.78 L 453.57,734.53 L 453.21,731.79 L 453.04,730.36 L 452.81,727.22 L 452.71,725.59 L 452.59,721.99 L 452.53,716.00 L 452.53,714.60 L 452.56,712.11 L 452.57,710.90 L 452.63,708.74 L 452.66,707.70 L 452.75,705.84 L 452.80,704.94 L 452.94,703.33 L 453.08,701.76 L 453.50,699.16 L 454.38,695.64 L 454.99,693.68 L 456.34,689.95 L 457.03,688.11 L 458.57,684.57 L 459.37,682.83 L 461.13,679.45 L 462.04,677.78 L 464.05,674.52 L 465.09,672.90 L 467.39,669.71 L 468.57,668.11 L 471.18,664.94 L 472.52,663.35 L 475.47,660.15 L 480.30,655.28 L 483.15,652.53 L 489.03,647.51 L 492.01,645.08 L 498.21,640.67 L 501.36,638.54 L 507.95,634.70 L 511.29,632.86 L 518.33,629.57 L 521.91,628.00 L 529.46,625.24 L 533.31,623.92 L 541.44,621.65 L 545.58,620.57 L 554.36,618.77 L 568.33,616.54 L 569.82,616.35 L 572.72,615.87 L 574.13,615.63 L 576.66,615.10 L 577.85,614.83 L 579.71,614.31 L 580.13,614.19 L 580.78,613.95 L 581.46,613.62 L 581.87,613.35 L 582.72,612.30 L 583.16,611.68 L 584.10,609.84 L 584.58,608.81 L 585.66,606.07 L 585.95,605.32 L 586.55,603.63 L 587.51,600.81 L 588.49,597.85 L 590.71,592.02 L 591.86,589.12 L 594.41,583.43 L 595.72,580.60 L 598.59,575.08 L 600.06,572.33 L 603.23,566.99 L 604.85,564.34 L 608.31,559.20 L 610.07,556.66 L 613.81,551.74 L 615.71,549.31 L 619.71,544.65 L 625.99,537.95 L 627.05,536.88 L 628.96,535.00 L 629.88,534.11 L 631.54,532.54 L 632.35,531.79 L 633.83,530.47 L 634.56,529.84 L 635.92,528.74 L 637.27,527.68 L 639.86,525.98 L 644.07,523.70 L 645.73,522.89 L 648.85,521.67 L 650.38,521.12 L 653.25,520.41 L 654.65,520.12 L 657.24,519.92 L 658.51,519.88 L 660.81,520.19 L 661.92,520.41 L 663.91,521.22 L 664.86,521.69 L 666.52,523.00 L 667.31,523.71 L 668.61,525.52 L 670.16,528.78 L 670.35,529.33 L 670.69,531.11 L 670.85,532.10 L 671.10,534.61 L 671.22,535.94 L 671.38,538.94 L 671.48,543.75 L 671.48,545.51 L 671.56,548.46 L 671.60,549.83 L 671.76,551.93 L 671.85,552.87 L 672.08,554.04 L 672.50,554.67 L 672.62,554.63 L 672.98,554.32 L 673.19,554.12 L 673.72,553.52 L 674.00,553.18 L 674.67,552.32 L 675.02,551.86 L 675.81,550.77 L 676.63,549.63 L 678.56,546.79 L 679.55,545.30 L 681.72,541.94 L 683.92,538.49 L 688.38,531.05 L 689.45,529.22 L 691.42,525.74 L 693.96,521.00 L 695.88,517.22 L 699.41,509.61 L 701.12,505.80 L 704.23,498.12 L 705.72,494.27 L 708.40,486.51 L 709.68,482.63 L 711.92,474.81 L 712.99,470.89 L 714.80,463.00 L 715.66,459.05 L 717.04,451.09 L 717.68,447.11 L 718.63,439.09 L 719.57,427.00 L 719.63,425.89 L 719.72,423.91 L 719.76,422.95 L 719.85,421.23 L 719.93,419.57 L 720.16,416.90 L 720.29,415.66 L 720.75,413.60 L 721.02,412.62 L 721.86,410.90 L 722.35,410.05 L 723.75,408.36 L 724.53,407.50 L 726.65,405.57 L 727.23,405.06 L 728.56,403.95 L 729.25,403.37 L 730.81,402.10 L 731.62,401.44 L 733.43,399.97 L 736.47,397.51 L 738.58,395.79 L 742.52,392.65 L 743.46,391.91 L 745.22,390.53 L 746.07,389.86 L 747.62,388.68 L 748.36,388.11 L 749.65,387.14 L 750.25,386.69 L 751.24,385.99 L 751.69,385.67 L 752.32,385.26 L 752.84,385.00 L 753.00,385.00 L 753.31,385.45 L 753.46,385.75 L 753.74,386.75 L 753.88,387.31 L 754.13,388.81 L 754.25,389.61 L 754.46,391.53 L 754.57,392.53 L 754.75,394.82 L 754.84,396.01 L 754.99,398.61 L 755.12,401.27 L 755.29,407.28 L 755.35,410.35 L 755.36,416.82 L 755.35,420.07 L 755.19,426.52 L 755.09,429.69 L 754.76,435.65 L 754.67,437.08 L 754.45,439.78 L 754.06,443.50 L 753.27,449.95 L 751.05,462.68 L 749.83,469.02 L 746.76,481.51 L 745.12,487.72 L 741.20,499.94 L 739.14,506.01 L 734.40,517.93 L 731.92,523.84 L 726.36,535.42 L 723.48,541.17 L 717.12,552.38 L 713.84,557.94 L 706.69,568.75 L 695.09,584.50 L 694.28,585.51 L 692.47,587.69 L 691.53,588.80 L 689.47,591.15 L 687.36,593.53 L 682.54,598.65 L 680.05,601.25 L 674.69,606.62 L 671.98,609.31 L 666.37,614.66 L 663.56,617.30 L 657.99,622.36 L 655.24,624.82 L 649.98,629.32 L 648.70,630.40 L 646.24,632.41 L 645.04,633.38 L 642.76,635.15 L 641.64,636.01 L 639.58,637.52 L 636.75,639.45 L 636.00,639.94 L 635.00,640.69 L 634.59,641.02 L 634.23,641.49 L 634.12,641.68 L 634.35,641.88 L 634.53,641.95 L 635.29,641.89 L 635.73,641.84 L 636.97,641.56 L 637.64,641.39 L 639.31,640.90 L 640.20,640.63 L 642.25,639.95 L 643.31,639.59 L 645.69,638.74 L 646.91,638.29 L 649.57,637.28 L 650.92,636.76 L 653.80,635.62 L 656.72,634.45 L 663.03,631.77 L 666.22,630.40 L 672.76,627.43 L 682.37,622.81 L 686.76,620.61 L 695.38,615.86 L 699.66,613.43 L 708.02,608.24 L 712.16,605.59 L 720.21,600.01 L 724.19,597.16 L 731.89,591.21 L 735.70,588.19 L 743.01,581.90 L 746.61,578.72 L 753.48,572.14 L 756.86,568.81 L 763.25,561.97 L 772.24,551.44 L 774.19,549.02 L 778.06,543.85 L 779.99,541.21 L 783.80,535.66 L 785.70,532.85 L 789.41,526.99 L 791.25,524.03 L 794.82,517.92 L 798.36,511.77 L 804.86,498.99 L 806.42,495.77 L 809.37,489.31 L 813.47,479.62 L 814.10,478.04 L 815.46,474.47 L 816.14,472.64 L 817.56,468.72 L 818.97,464.77 L 821.63,456.82 L 822.25,454.92 L 823.37,451.38 L 823.89,449.69 L 824.75,446.76 L 825.14,445.39 L 825.67,443.30 L 825.78,442.84 L 825.91,442.11 L 826.00,441.36 L 826.00,440.98 L 826.29,440.40 L 827.00,440.00 L 827.13,440.00 L 827.35,440.48 L 827.45,440.79 L 827.61,441.84 L 827.68,442.44 L 827.79,444.01 L 827.83,444.85 L 827.89,446.88 L 827.91,447.94 L 827.91,450.35 L 827.91,451.60 L 827.87,454.34 L 827.82,457.16 L 827.59,463.50 L 827.46,466.74 L 827.08,473.58 L 826.87,477.02 L 826.36,483.85 L 826.09,487.22 L 825.47,493.55 L 825.31,495.07 L 824.97,497.95 L 824.44,501.92 L 823.42,508.93 L 820.89,522.58 L 819.55,529.35 L 816.36,542.56 L 814.68,549.12 L 810.80,561.96 L 808.78,568.34 L 804.20,580.85 L 801.83,587.06 L 796.53,599.30 L 793.79,605.39 L 787.75,617.40 L 784.63,623.39 L 777.82,635.23 L 766.74,652.87 L 765.51,654.71 L 763.24,658.18 L 762.15,659.85 L 760.30,662.73 L 759.87,663.40 L 759.13,664.58 L 758.78,665.13 L 758.21,666.05 L 757.96,666.48 L 757.59,667.10 L 757.30,667.65 L 757.21,667.88 L 757.41,668.13 L 757.57,668.22 L 758.21,668.21 L 758.59,668.17 L 759.64,667.93 L 760.21,667.78 L 761.62,667.32 L 762.36,667.06 L 764.08,666.41 L 764.97,666.06 L 766.96,665.24 L 768.99,664.38 L 773.67,662.24 L 776.07,661.12 L 781.19,658.58 L 783.77,657.28 L 788.96,654.53 L 791.53,653.14 L 796.42,650.34 L 803.00,646.27 L 806.13,644.22 L 812.16,639.89 L 815.13,637.68 L 820.83,633.05 L 823.65,630.70 L 829.03,625.77 L 831.68,623.27 L 836.75,618.04 L 839.24,615.39 L 843.99,609.86 L 846.32,607.06 L 850.75,601.23 L 852.93,598.27 L 857.04,592.14 L 862.85,582.60 L 863.55,581.38 L 864.86,579.06 L 865.48,577.94 L 866.56,575.99 L 867.05,575.09 L 867.77,573.73 L 868.33,572.60 L 868.44,572.30 L 868.78,571.98 L 869.32,572.04 L 869.37,572.09 L 869.40,572.45 L 869.40,572.67 L 869.32,573.34 L 869.26,573.72 L 869.08,574.68 L 868.98,575.20 L 868.72,576.43 L 868.43,577.72 L 867.61,580.96 L 867.17,582.68 L 866.10,586.61 L 865.54,588.64 L 864.27,593.02 L 863.62,595.25 L 862.22,599.87 L 857.83,613.50 L 855.98,618.94 L 851.91,629.63 L 849.82,634.93 L 845.29,645.35 L 842.96,650.52 L 837.95,660.65 L 835.39,665.68 L 829.92,675.54 L 827.13,680.43 L 821.20,689.99 L 818.18,694.74 L 811.79,704.01 L 808.54,708.61 L 801.71,717.58 L 798.23,722.03 L 790.95,730.70 L 787.25,735.00 L 779.53,743.36 L 775.61,747.50 L 767.45,755.55 L 763.31,759.54 L 754.72,767.27 L 750.37,771.09 L 741.34,778.50 L 736.78,782.16 L 727.33,789.24 L 722.55,792.73 L 712.68,799.48 L 707.70,802.81 L 697.41,809.21 L 681.53,818.43 L 679.91,819.32 L 677.33,820.81 L 676.15,821.50 L 674.45,822.60 L 673.71,823.11 L 672.91,823.84 L 672.63,824.16 L 672.76,824.54 L 672.94,824.69 L 674.01,824.74 L 674.67,824.72 L 676.71,824.45 L 677.85,824.27 L 680.88,823.70 L 686.56,822.53 L 690.54,821.67 L 698.45,819.76 L 702.39,818.77 L 710.24,816.58 L 714.15,815.45 L 721.93,813.00 L 725.81,811.73 L 733.50,809.01 L 737.34,807.62 L 744.95,804.64 L 748.74,803.12 L 756.26,799.88 L 760.01,798.23 L 767.42,794.73 L 771.11,792.96 L 778.42,789.22 L 782.06,787.32 L 789.25,783.33 L 792.82,781.31 L 799.89,777.08 L 803.40,774.94 L 810.33,770.48 L 813.78,768.22 L 820.57,763.53 L 823.95,761.15 L 830.59,756.23 L 833.89,753.74 L 840.38,748.59 L 843.61,745.99 L 849.93,740.62 L 859.22,732.32 L 862.92,728.91 L 870.06,721.89 L 873.60,718.35 L 880.43,711.06 L 883.80,707.38 L 890.31,699.84 L 893.52,696.04 L 899.69,688.25 L 902.74,684.33 L 908.57,676.31 L 911.45,672.27 L 916.94,664.03 L 919.64,659.88 L 924.79,651.43 L 927.32,647.18 L 932.10,638.53 L 934.45,634.18 L 938.88,625.35 L 941.05,620.90 L 945.11,611.89 L 947.09,607.37 L 950.77,598.19 L 952.57,593.58 L 955.87,584.25 L 957.48,579.57 L 960.40,570.10 L 961.81,565.34 L 964.33,555.74 L 965.55,550.93 L 967.68,541.20 L 970.41,526.50 L 970.91,523.50 L 971.76,517.98 L 972.17,515.29 L 972.85,510.26 L 973.50,505.31 L 974.36,496.01 L 974.55,493.67 L 974.83,488.89 L 974.96,486.47 L 975.13,481.38 L 975.21,478.78 L 975.30,473.18 L 975.34,464.00 L 975.34,459.71 L 975.20,451.53 L 975.10,447.49 L 974.76,439.73 L 974.56,435.88 L 973.99,428.39 L 973.68,424.67 L 972.87,417.31 L 972.44,413.64 L 971.39,406.28 L 970.82,402.59 L 969.50,395.09 L 968.80,391.31 L 967.19,383.54 L 964.44,371.42 L 963.49,367.44 L 961.33,359.45 L 960.20,355.45 L 957.71,347.46 L 956.42,343.46 L 953.60,335.48 L 952.16,331.49 L 949.03,323.54 L 947.43,319.57 L 944.00,311.66 L 942.25,307.71 L 938.53,299.87 L 936.63,295.96 L 932.63,288.21 L 930.59,284.34 L 926.32,276.68 L 924.16,272.87 L 919.62,265.33 L 917.33,261.58 L 912.55,254.19 L 910.13,250.51 L 905.11,243.27 L 902.57,239.67 L 897.32,232.60 L 894.67,229.09 L 889.20,222.22 L 886.44,218.80 L 880.76,212.14 L 877.90,208.84 L 872.02,202.40 L 863.00,193.03 L 860.06,190.08 L 853.95,184.28 L 850.86,181.41 L 844.49,175.77 L 841.27,172.98 L 834.66,167.53 L 831.33,164.82 L 824.52,159.56 L 821.08,156.96 L 814.09,151.91 L 810.57,149.42 L 803.43,144.60 L 799.84,142.22 L 792.58,137.65 L 788.93,135.39 L 781.58,131.08 L 777.90,128.96 L 770.48,124.93 L 766.77,122.95 L 759.32,119.21 L 755.59,117.38 L 748.14,113.95 L 744.42,112.28 L 736.99,109.18 L 733.29,107.68 L 725.92,104.93 L 722.24,103.60 L 714.95,101.21 L 711.32,100.06 L 704.15,98.06 L 693.55,95.49 L 691.37,95.02 L 687.77,94.28 L 686.09,93.95 L 683.48,93.51 L 682.29,93.33 L 680.64,93.19 L 679.93,93.17 L 679.20,93.36 L 678.95,93.50 L 679.12,94.03 L 679.32,94.34 L 680.36,95.24 L 680.98,95.73 L 682.86,97.00 L 686.59,99.34 L 689.52,101.12 L 695.00,104.91 L 697.68,106.83 L 702.62,110.85 L 705.02,112.88 L 709.38,117.09 L 715.18,123.57 L 715.91,124.48 L 717.84,126.82 L 718.85,128.05 L 721.14,130.78 L 722.31,132.17 L 724.68,134.96 L 728.02,138.84 L 729.13,140.12 L 731.04,142.37 L 731.96,143.46 L 733.53,145.41 L 734.28,146.35 L 735.56,148.07 L 736.16,148.90 L 737.20,150.47 L 738.19,152.02 L 739.65,155.01 L 741.52,160.00 L 741.76,160.76 L 742.44,162.61 L 742.80,163.57 L 743.64,165.64 L 744.07,166.68 L 744.97,168.73 L 746.27,171.49 L 747.23,173.41 L 748.93,177.22 L 749.74,179.14 L 751.16,183.05 L 751.83,185.02 L 753.00,189.16 L 753.55,191.26 L 754.49,195.76 L 754.93,198.06 L 755.67,203.04 L 756.02,205.61 L 756.58,211.21 L 756.84,214.10 L 757.25,220.46 L 757.73,231.00 L 757.91,236.14 L 757.53,246.26 L 757.21,251.29 L 755.84,261.17 L 755.03,266.07 L 752.68,275.67 L 751.39,280.43 L 748.07,289.74 L 746.29,294.35 L 742.02,303.34 L 739.76,307.79 L 734.53,316.44 L 731.80,320.71 L 725.63,329.00 L 715.33,340.99 L 714.03,342.37 L 711.57,344.79 L 710.36,345.94 L 708.03,347.93 L 706.88,348.87 L 704.62,350.45 L 703.49,351.19 L 701.23,352.40 L 700.10,352.96 L 697.78,353.82 L 696.60,354.22 L 694.15,354.78 L 692.91,355.02 L 690.27,355.31 L 686.02,355.46 L 684.27,355.46 L 681.51,355.34 L 680.22,355.26 L 678.08,354.94 L 677.05,354.75 L 675.11,354.15 L 672.00,352.85 L 669.97,351.90 L 666.26,349.58 L 664.47,348.36 L 661.28,345.52 L 659.75,344.04 L 657.10,340.71 L 653.79,335.22 L 653.09,333.81 L 652.09,331.48 L 651.64,330.35 L 651.04,328.21 L 650.78,327.12 L 650.46,324.65 L 650.16,320.03 L 650.11,318.71 L 650.14,316.25 L 650.18,315.04 L 650.38,312.75 L 650.64,310.50 L 651.73,306.45 L 652.37,304.47 L 654.30,300.81 L 658.20,295.51 L 659.54,293.99 L 662.21,291.47 L 663.55,290.29 L 666.37,288.38 L 667.81,287.49 L 670.96,286.07 L 676.27,284.36 L 677.13,284.15 L 678.75,283.71 L 679.53,283.50 L 680.89,283.12 L 681.52,282.93 L 682.46,282.64 L 683.23,282.34 L 683.35,282.27 L 683.15,281.54 L 682.99,281.08 L 682.30,279.68 L 681.91,278.90 L 680.82,276.98 L 680.23,275.96 L 678.83,273.66 L 677.37,271.29 L 673.89,266.02 L 668.55,258.50 L 666.60,255.91 L 662.30,250.68 L 660.07,248.06 L 655.19,242.72 L 652.68,240.03 L 647.16,234.51 L 638.10,225.97 L 636.34,224.36 L 633.23,221.44 L 631.74,220.03 L 629.11,217.42 L 627.85,216.14 L 625.62,213.72 L 624.55,212.52 L 622.63,210.19 L 620.77,207.86 L 617.61,202.98 L 616.84,201.71 L 615.33,198.98 L 613.02,194.50 L 612.16,192.74 L 610.67,189.55 L 609.97,188.01 L 608.79,185.14 L 608.23,183.74 L 607.32,181.05 L 606.90,179.72 L 606.24,177.07 L 605.93,175.74 L 605.47,172.99 L 605.27,171.59 L 604.98,168.59 L 604.86,167.05 L 604.72,163.66 L 604.64,158.00 L 604.64,156.50 L 604.65,153.92 L 604.66,152.68 L 604.71,150.55 L 604.75,149.52 L 604.85,147.72 L 604.91,146.85 L 605.09,145.25 L 605.28,143.69 L 605.93,140.72 L 606.11,139.95 L 606.58,138.29 L 607.41,135.53 L 607.79,134.30 L 608.81,131.42 L 609.34,129.95 L 610.55,126.87 L 611.16,125.34 L 612.41,122.42 L 614.18,118.64 L 614.58,117.85 L 615.25,116.48 L 615.56,115.83 L 616.08,114.71 L 616.56,113.64 L 617.09,112.13 L 617.29,111.47 L 617.31,110.60 L 616.83,109.80 L 616.55,109.60 L 615.33,109.36 L 614.63,109.25 L 612.69,109.17 L 611.66,109.15 L 609.21,109.22 L 607.94,109.27 L 605.18,109.47 L 602.38,109.71 L 596.66,110.50 L 595.29,110.73 L 592.76,111.23 L 589.50,112.06 L 587.68,112.63 L 584.09,113.95 L 582.30,114.64 L 578.79,116.19 L 575.31,117.81 L 568.77,121.66 L 567.18,122.66 L 564.14,124.80 L 562.65,125.89 L 559.84,128.18 L 558.47,129.35 L 555.92,131.77 L 552.43,135.52 L 551.11,137.07 L 548.70,139.85 L 547.53,141.18 L 545.40,143.54 L 544.37,144.68 L 542.49,146.66 L 541.58,147.61 L 539.91,149.25 L 539.09,150.04 L 537.59,151.37 L 536.86,152.01 L 535.48,153.08 L 531.68,155.47 L 530.14,156.24 L 527.52,157.22 L 526.26,157.62 L 523.97,157.87 L 522.84,157.91 L 520.58,157.45 L 516.92,155.96 L 515.43,155.20 L 513.14,153.45 L 512.11,152.53 L 510.68,150.36 L 510.07,149.22 L 509.45,146.52 L 509.34,141.75 L 509.40,141.00 L 509.46,139.72 L 509.48,139.12 L 509.45,138.13 L 509.42,137.68 L 509.31,137.00 L 509.25,136.69 L 509.05,136.31 L 508.95,136.16 L 508.68,136.09 L 508.53,136.10 L 508.19,136.34 L 508.01,136.50 L 507.59,137.06 L 506.88,138.25 L 506.56,138.87 L 505.44,140.66 L 504.82,141.64 L 503.19,144.05 L 502.32,145.31 L 500.28,148.18 L 499.23,149.65 L 496.90,152.82 L 494.53,156.04 L 489.39,162.72 L 488.12,164.37 L 485.61,167.52 L 482.02,171.91 L 478.53,176.11 L 471.14,184.34 L 467.38,188.43 L 459.51,196.42 L 455.51,200.38 L 447.22,208.06 L 443.03,211.87 L 434.38,219.20 L 430.02,222.81 L 421.09,229.73 L 416.60,233.14 L 407.45,239.59 L 402.86,242.75 L 393.55,248.69 L 379.50,256.94 L 377.56,258.02 L 374.09,259.84 L 372.43,260.69 L 369.46,262.07 L 368.04,262.71 L 365.51,263.67 L 364.30,264.10 L 362.15,264.66 L 361.11,264.89 L 359.27,265.06 L 358.38,265.10 L 356.79,264.89 L 356.01,264.74 L 354.60,264.16 L 352.61,262.91 L 351.88,262.33 L 350.60,260.99 L 350.00,260.28 L 348.99,258.68 L 348.51,257.84 L 347.76,255.97 L 347.42,254.99 L 346.92,252.82 L 346.70,251.70 L 346.46,249.23 L 346.37,247.95 L 346.38,245.15 L 346.42,243.72 L 346.67,240.59 L 347.33,235.50 L 347.53,234.26 L 347.82,231.93 L 347.95,230.81 L 348.10,228.88 L 348.15,227.98 L 348.14,226.66 L 347.93,225.61 L 347.82,225.48 L 347.42,225.48 L 347.20,225.51 L 346.65,225.81 L 344.68,227.61 L 343.03,229.57 L 340.15,233.02 L 338.76,234.68 L 336.34,237.62 L 335.17,239.04 L 333.10,241.62 L 332.10,242.87 L 330.28,245.21 L 328.51,247.52 L 325.28,251.99 L 324.46,253.14 L 322.78,255.57 L 320.08,259.56 L 318.20,262.35 L 314.68,267.97 L 312.96,270.79 L 309.76,276.44 L 308.20,279.27 L 305.33,284.93 L 303.94,287.76 L 301.40,293.41 L 300.18,296.23 L 297.99,301.84 L 296.94,304.63 L 295.11,310.18 L 294.24,312.95 L 292.78,318.42 L 291.01,326.50 L 290.75,327.88 L 290.21,330.59 L 289.94,331.92 L 289.40,334.33 L 289.14,335.48 L 288.69,337.31 L 288.15,339.12 L 287.88,339.84 L 286.78,341.40 L 286.16,342.18 L 284.66,343.63 L 283.89,344.32 L 282.34,345.33 L 280.38,346.00 L 280.19,346.00 L 279.64,346.34 L 279.34,346.55 L 278.63,347.25 L 276.31,350.25 L 275.09,352.16 L 272.72,355.51 L 271.53,357.11 L 269.21,359.86 L 268.04,361.17 L 265.72,363.38 L 262.19,366.14 L 260.90,367.01 L 258.00,369.16 L 257.30,369.69 L 256.03,370.69 L 254.50,371.98 L 254.09,372.35 L 252.97,373.24 L 252.38,373.69 L 251.03,374.66 L 246.89,377.30 L 245.70,377.97 L 243.53,379.53 L 242.47,380.33 L 240.56,382.13 L 239.63,383.05 L 237.99,385.04 L 237.20,386.06 L 235.82,388.21 L 235.17,389.30 L 234.06,391.58 L 233.54,392.73 L 232.71,395.10 L 232.33,396.29 L 231.78,398.71 L 231.54,399.92 L 231.28,402.35 L 231.18,403.57 L 231.19,405.97 L 231.24,407.17 L 231.54,409.51 L 231.73,410.68 L 232.32,412.92 L 232.66,414.03 L 233.54,416.14 L 234.03,417.17 L 235.21,419.10 L 235.84,420.04 L 237.33,421.77 L 238.11,422.60 L 239.89,424.07 L 242.92,425.96 L 243.47,426.24 L 245.05,426.86 L 245.90,427.18 L 247.92,427.84 L 250.02,428.50 L 254.76,429.74 L 255.92,430.02 L 258.14,430.51 L 259.22,430.74 L 261.11,431.08 L 262.00,431.22 L 263.39,431.36 L 264.68,431.29 L 264.91,431.21 L 265.27,430.66 L 265.44,430.33 L 265.68,429.26 L 265.79,428.66 L 265.92,427.02 L 266.00,423.89 L 266.00,422.95 L 266.04,421.22 L 266.06,420.39 L 266.14,419.02 L 266.18,418.40 L 266.29,417.54 L 266.47,417.00 L 266.53,417.00 L 267.25,417.39 L 267.69,417.64 L 269.04,418.46 L 269.77,418.91 L 271.56,420.04 L 274.55,421.97 L 275.58,422.64 L 277.49,423.81 L 278.43,424.36 L 280.16,425.29 L 281.00,425.73 L 282.56,426.43 L 283.32,426.75 L 284.73,427.23 L 286.11,427.64 L 288.47,427.83 L 291.55,427.16 L 293.95,426.06 L 290.36,417.78 L 289.90,416.71 L 289.09,414.82 L 288.70,413.92 L 288.05,412.34 L 287.74,411.58 L 287.22,410.30 L 286.99,409.69 L 286.62,408.69 L 286.45,408.22 L 286.21,407.47 L 286.11,407.13 L 286.01,406.64 L 286.14,406.00 L 286.19,406.00 L 286.54,406.07 L 286.74,406.12 L 287.34,406.27 L 289.70,406.91 L 290.46,407.13 L 291.58,407.31 L 292.10,407.33 L 293.03,406.94 L 293.51,406.64 L 294.66,405.43 L 294.98,405.06 L 295.73,404.13 L 297.07,402.41 L 297.64,401.67 L 298.78,400.31 L 299.34,399.66 L 300.37,398.59 L 300.86,398.10 L 301.65,397.43 L 302.45,397.00 L 302.61,397.00 L 303.10,397.19 L 303.36,397.32 L 303.97,397.72 L 305.94,399.43 L 308.23,401.87 L 313.68,395.98 L 315.05,394.50 L 318.47,391.62 L 320.24,390.22 L 323.99,387.78 L 324.92,387.21 L 326.73,386.23 L 327.62,385.77 L 329.29,385.04 L 330.10,384.71 L 331.56,384.27 L 333.41,383.99 L 333.97,383.99 L 335.25,383.75 L 335.92,383.59 L 337.40,383.06 L 338.16,382.75 L 339.82,381.92 L 340.67,381.47 L 342.50,380.37 L 343.43,379.78 L 345.40,378.40 L 346.40,377.68 L 348.51,376.05 L 355.23,370.23 L 356.02,369.49 L 357.84,367.86 L 358.78,367.03 L 360.85,365.25 L 362.97,363.43 L 367.75,359.50 L 370.20,357.51 L 375.33,353.45 L 377.90,351.44 L 382.98,347.56 L 385.47,345.67 L 390.09,342.28 L 391.20,341.48 L 393.26,340.02 L 394.25,339.31 L 396.06,338.08 L 396.92,337.49 L 398.42,336.52 L 399.13,336.07 L 400.27,335.41 L 400.80,335.12 L 401.54,334.79 L 402.13,334.73 L 402.21,334.81 L 402.05,335.21 L 401.92,335.45 L 401.37,336.17 L 401.05,336.57 L 400.11,337.61 L 399.60,338.16 L 398.30,339.49 L 397.61,340.19 L 395.96,341.80 L 395.09,342.64 L 393.10,344.52 L 392.06,345.49 L 389.74,347.62 L 385.92,351.09 L 383.56,353.21 L 379.19,357.12 L 378.14,358.05 L 376.19,359.78 L 375.25,360.62 L 373.55,362.13 L 372.73,362.85 L 371.32,364.10 L 370.66,364.68 L 369.59,365.61 L 369.11,366.04 L 368.43,366.62 L 367.91,367.04 L 367.79,367.11 L 367.77,367.72 L 367.79,368.09 L 368.02,369.18 L 368.17,369.78 L 368.61,371.21 L 369.49,373.58 L 370.39,375.82 L 371.77,380.41 L 372.39,382.70 L 373.17,387.20 L 373.48,389.41 L 373.63,393.56 L 373.08,399.08 L 372.62,401.24 L 371.45,404.93 L 370.81,406.69 L 369.11,409.84 L 368.18,411.38 L 365.74,414.34 L 365.08,415.09 L 363.57,416.61 L 361.02,418.98 L 359.57,420.27 L 356.97,422.86 L 355.73,424.16 L 353.54,426.78 L 352.50,428.10 L 350.71,430.77 L 349.87,432.12 L 348.47,434.87 L 347.82,436.25 L 346.81,439.08 L 346.35,440.51 L 345.71,443.45 L 345.44,444.94 L 345.16,448.00 L 345.15,452.76 L 345.50,459.35 L 338.67,461.08 L 337.74,461.32 L 335.97,461.81 L 335.12,462.05 L 333.66,462.50 L 332.98,462.72 L 331.98,463.09 L 331.18,463.49 L 331.09,463.58 L 331.25,464.05 L 331.38,464.33 L 331.92,465.09 L 332.24,465.50 L 333.10,466.46 L 334.65,468.02 L 335.42,468.73 L 336.98,469.94 L 337.77,470.51 L 339.51,471.49 L 340.41,471.96 L 342.49,472.81 L 346.15,474.00 L 347.16,474.29 L 349.75,475.05 L 351.11,475.45 L 354.13,476.35 L 355.66,476.80 L 358.73,477.72 L 363.00,479.01 L 364.60,479.50 L 367.41,480.32 L 368.76,480.70 L 371.14,481.33 L 372.28,481.62 L 374.29,482.05 L 375.27,482.25 L 377.01,482.52 L 378.70,482.74 L 381.60,482.71 L 385.88,482.03 L 386.96,481.77 L 388.69,481.29 L 389.48,481.05 L 390.63,480.58 L 391.13,480.35 L 391.67,479.85 L 391.86,479.59 L 391.78,479.02 L 391.66,478.72 L 390.94,478.04 L 390.50,477.68 L 389.12,476.85 L 388.35,476.40 L 386.31,475.37 L 382.47,473.56 L 381.03,472.89 L 378.40,471.62 L 377.15,471.00 L 375.08,469.91 L 374.13,469.40 L 372.83,468.61 L 372.56,468.44 L 372.21,468.17 L 372.00,467.91 L 372.00,467.79 L 372.34,467.50 L 372.55,467.34 L 373.25,467.00 L 376.25,465.98 L 378.10,465.51 L 381.05,464.68 L 382.40,464.29 L 384.40,463.62 L 385.28,463.30 L 386.36,462.77 L 387.00,462.11 L 387.00,462.01 L 386.65,461.56 L 386.43,461.31 L 385.71,460.62 L 382.62,458.09 L 381.39,457.17 L 379.51,455.42 L 378.66,454.55 L 377.46,452.78 L 376.94,451.88 L 376.34,449.93 L 376.00,446.61 L 376.00,445.39 L 376.42,442.35 L 376.69,440.75 L 377.60,437.09 L 378.11,435.21 L 379.42,431.14 L 380.12,429.08 L 381.77,424.79 L 382.62,422.64 L 384.52,418.34 L 385.49,416.21 L 387.56,412.09 L 388.60,410.07 L 390.76,406.33 L 394.02,401.36 L 395.51,399.31 L 398.89,395.20 L 400.64,393.15 L 404.46,389.14 L 406.42,387.16 L 410.58,383.35 L 417.11,377.97 L 418.21,377.12 L 420.16,375.57 L 421.10,374.81 L 422.76,373.39 L 424.36,372.00 L 426.86,369.40 L 428.04,368.10 L 429.97,365.40 L 432.62,360.76 L 433.39,359.25 L 434.52,355.61 L 435.02,353.71 L 435.60,349.53 L 435.82,347.41 L 435.81,343.00 L 435.10,336.50 L 434.92,335.56 L 434.69,333.94 L 434.60,333.16 L 434.59,331.81 L 434.62,331.16 L 434.91,329.97 L 435.09,329.39 L 435.75,328.25 L 436.14,327.68 L 437.24,326.49 L 437.85,325.88 L 439.47,324.52 L 440.35,323.82 L 442.55,322.19 L 446.60,319.33 L 449.49,317.32 L 455.34,313.66 L 458.27,311.90 L 464.17,308.74 L 467.12,307.23 L 473.03,304.58 L 475.99,303.31 L 481.88,301.16 L 484.82,300.15 L 490.67,298.50 L 493.58,297.74 L 499.34,296.59 L 502.21,296.08 L 507.86,295.43 L 510.66,295.17 L 516.16,295.03 L 518.89,295.02 L 524.20,295.37 L 526.83,295.61 L 531.93,296.47 L 534.45,296.96 L 539.30,298.32 L 541.69,299.07 L 546.26,300.93 L 548.51,301.93 L 552.76,304.29 L 554.85,305.54 L 558.76,308.40 L 560.66,309.90 L 564.19,313.27 L 569.02,318.89 L 570.72,321.15 L 573.72,325.68 L 575.17,327.95 L 577.67,332.55 L 578.86,334.86 L 580.88,339.57 L 581.83,341.95 L 583.38,346.83 L 584.10,349.30 L 585.19,354.41 L 585.68,356.99 L 586.33,362.37 L 586.60,365.10 L 586.82,370.80 L 586.69,379.78 L 586.52,383.53 L 585.80,390.76 L 585.37,394.36 L 584.10,401.55 L 583.39,405.17 L 581.50,412.63 L 577.91,424.47 L 576.07,429.97 L 571.68,440.67 L 570.52,443.31 L 568.02,448.53 L 566.73,451.13 L 563.98,456.25 L 562.58,458.79 L 559.58,463.82 L 558.04,466.31 L 554.79,471.24 L 553.14,473.69 L 549.63,478.52 L 547.85,480.92 L 544.10,485.66 L 542.19,488.02 L 538.18,492.67 L 536.14,494.98 L 531.87,499.54 L 529.71,501.80 L 525.18,506.27 L 522.89,508.50 L 518.11,512.88 L 515.68,515.07 L 510.64,519.37 L 508.08,521.51 L 502.78,525.73 L 500.09,527.83 L 494.52,531.97 L 485.87,538.10 L 483.48,539.74 L 479.27,542.67 L 477.26,544.09 L 473.69,546.69 L 471.98,547.95 L 468.91,550.33 L 467.43,551.50 L 464.71,553.79 L 462.05,556.09 L 457.15,560.95 L 455.91,562.23 L 453.35,565.01 L 449.25,569.66 L 446.29,573.08 L 440.89,579.75 L 438.28,583.07 L 433.52,589.61 L 431.22,592.88 L 427.06,599.40 L 425.05,602.67 L 421.42,609.26 L 419.67,612.58 L 416.53,619.35 L 415.02,622.77 L 412.31,629.82 L 411.00,633.39 L 408.67,640.82 L 405.54,652.50 L 404.70,656.00 L 403.46,663.06 L 402.92,666.59 L 402.27,673.68 L 402.02,677.23 L 401.97,684.32 L 402.02,687.86 L 402.55,694.91 L 402.89,698.43 L 404.00,705.41 L 404.63,708.89 L 406.33,715.76 L 407.24,719.18 L 409.51,725.91 L 413.56,735.80 L 414.71,738.29 L 417.24,743.18 L 418.54,745.60 L 421.38,750.35 L 422.84,752.71 L 425.98,757.31 L 427.58,759.59 L 431.01,764.04 L 432.75,766.24 L 436.45,770.52 L 438.34,772.64 L 442.30,776.75 L 444.31,778.78 L 448.52,782.70 L 450.66,784.63 L 455.11,788.36 L 457.37,790.19 L 462.04,793.71 L 464.41,795.45 L 469.30,798.75 L 471.77,800.37 L 476.87,803.45 L 479.44,804.96 L 484.72,807.81 L 487.38,809.20 L 492.85,811.80 L 495.60,813.07 L 501.23,815.42 L 504.06,816.56 L 509.84,818.64 L 518.67,821.46 L 520.34,821.94 L 523.06,822.74 L 524.32,823.10 L 526.32,823.68 L 527.24,823.94 L 528.63,824.32 L 529.27,824.48 L 530.18,824.69 L 530.59,824.78 L 531.14,824.85 L 531.38,824.86 L 531.70,824.81 L 531.98,824.74 M 625.97,814.49 L 628.29,814.07 L 633.04,813.00 L 635.43,812.43 L 640.27,811.08 L 645.13,809.67 L 654.91,806.08 L 659.78,804.17 L 669.26,799.72 L 671.60,798.56 L 676.14,796.10 L 682.72,792.24 L 686.02,790.19 L 692.11,786.06 L 695.07,783.98 L 700.51,779.78 L 703.15,777.67 L 707.95,773.38 L 710.27,771.22 L 714.45,766.83 L 716.47,764.61 L 720.05,760.09 L 721.76,757.81 L 724.76,753.14 L 726.18,750.79 L 728.61,745.96 L 731.64,738.50 L 732.27,736.68 L 733.14,733.68 L 733.53,732.19 L 734.03,728.97 L 734.13,728.10 L 734.30,726.11 L 734.38,725.06 L 734.50,722.61 L 734.56,721.32 L 734.66,718.26 L 734.80,712.84 L 734.84,710.73 L 734.91,707.25 L 734.94,705.61 L 734.97,702.96 L 734.98,701.73 L 734.96,699.79 L 734.94,698.90 L 734.85,697.55 L 734.80,696.93 L 734.64,696.05 L 734.55,695.65 L 734.30,695.10 L 733.20,694.11 L 732.93,693.96 L 732.07,693.08 L 731.60,692.56 L 730.46,691.07 L 729.86,690.27 L 728.58,688.37 L 726.65,685.27 L 725.54,683.39 L 723.55,680.21 L 722.57,678.71 L 720.71,676.21 L 719.78,675.03 L 717.89,673.09 L 716.92,672.19 L 714.83,670.72 L 713.75,670.04 L 711.30,668.93 L 710.01,668.42 L 707.03,667.57 L 705.47,667.18 L 701.80,666.49 L 695.35,665.52 L 691.96,665.06 L 685.76,664.44 L 682.74,664.18 L 677.12,663.98 L 674.36,663.93 L 669.14,664.18 L 666.56,664.37 L 661.55,665.10 L 659.05,665.53 L 654.07,666.78 L 651.56,667.47 L 646.42,669.26 L 643.81,670.23 L 638.32,672.60 L 629.50,676.85 L 616.50,683.45 L 598.57,683.28 L 580.63,683.10 L 560.57,702.83 L 557.81,705.54 L 552.40,710.79 L 551.08,712.07 L 548.55,714.50 L 547.31,715.68 L 545.00,717.89 L 543.87,718.96 L 541.84,720.87 L 540.86,721.79 L 539.18,723.35 L 538.38,724.08 L 537.11,725.22 L 535.75,726.40 L 535.10,726.93 L 533.91,727.96 L 533.34,728.46 L 532.40,729.37 L 531.96,729.80 L 531.37,730.48 L 531.00,731.12 L 531.00,731.18 L 531.78,731.30 L 532.29,731.36 L 534.03,731.47 L 535.00,731.52 L 537.59,731.61 L 538.98,731.66 L 542.32,731.74 L 544.07,731.78 L 548.07,731.85 L 550.13,731.88 L 554.68,731.93 L 557.02,731.95 L 562.02,731.98 L 569.94,732.00 L 608.87,732.00 L 612.16,725.34 L 612.66,724.32 L 614.02,722.07 L 614.75,720.92 L 616.51,718.49 L 618.35,716.03 L 622.78,710.99 L 625.06,708.52 L 629.77,704.12 L 630.94,703.10 L 633.17,701.33 L 636.31,699.18 L 637.87,698.24 L 641.29,696.55 L 643.03,695.74 L 646.73,694.32 L 648.60,693.65 L 652.49,692.53 L 654.45,692.00 L 658.44,691.19 L 660.44,690.82 L 664.42,690.33 L 666.41,690.13 L 670.30,689.98 L 672.22,689.95 L 675.92,690.17 L 681.16,690.92 L 682.47,691.20 L 684.93,691.94 L 686.12,692.34 L 688.33,693.33 L 689.40,693.86 L 691.37,695.07 L 692.31,695.71 L 694.02,697.14 L 694.85,697.87 L 696.30,699.49 L 696.99,700.33 L 698.18,702.13 L 698.74,703.04 L 699.66,705.00 L 700.09,706.00 L 700.74,708.10 L 701.03,709.17 L 701.41,711.39 L 701.56,712.52 L 701.66,714.86 L 701.67,716.04 L 701.48,718.47 L 701.35,719.69 L 700.87,722.20 L 700.60,723.46 L 699.82,726.02 L 699.40,727.31 L 698.33,729.91 L 697.75,731.22 L 696.38,733.85 L 693.97,737.81 L 693.17,739.01 L 691.34,741.41 L 690.40,742.61 L 688.30,744.99 L 686.15,747.36 L 681.12,752.00 L 678.51,754.30 L 672.71,758.68 L 669.73,760.84 L 663.34,764.86 L 660.09,766.81 L 653.31,770.36 L 649.89,772.06 L 642.90,775.00 L 639.40,776.39 L 632.39,778.63 L 622.06,781.08 L 620.58,781.34 L 617.18,782.02 L 615.45,782.37 L 611.86,783.17 L 610.08,783.58 L 606.72,784.40 L 602.42,785.55 L 601.34,785.86 L 599.49,786.38 L 598.60,786.62 L 596.99,787.00 L 595.41,787.35 L 592.05,787.69 L 591.13,787.75 L 588.97,787.80 L 587.83,787.81 L 585.07,787.78 L 583.59,787.75 L 580.02,787.65 L 579.07,787.62 L 576.97,787.55 L 573.52,787.44 L 570.53,787.33 L 565.29,787.09 L 562.78,786.95 L 558.29,786.60 L 556.11,786.40 L 552.10,785.88 L 550.13,785.59 L 546.32,784.85 L 544.41,784.44 L 540.53,783.42 L 538.55,782.86 L 534.32,781.50 L 532.14,780.77 L 527.30,779.00 L 526.03,778.53 L 523.35,777.51 L 519.04,775.84 L 516.72,774.94 L 512.70,773.29 L 510.78,772.49 L 507.49,770.99 L 505.93,770.26 L 503.29,768.86 L 502.03,768.16 L 499.93,766.77 L 498.93,766.07 L 497.27,764.64 L 496.49,763.91 L 495.17,762.36 L 494.55,761.56 L 493.49,759.82 L 492.07,756.94 L 491.62,755.89 L 490.88,754.39 L 490.53,753.73 L 489.91,752.91 L 489.61,752.58 L 488.99,752.31 L 487.93,752.40 L 484.01,753.61 L 483.59,753.74 L 482.88,753.69 L 482.54,753.59 L 481.85,752.94 L 481.50,752.53 L 480.68,751.10 L 480.46,750.68 L 479.97,749.67 L 479.13,747.86 L 478.18,745.76 L 476.49,742.09 L 475.69,740.33 L 474.29,737.31 L 473.62,735.88 L 472.47,733.48 L 471.93,732.36 L 471.03,730.55 L 470.61,729.71 L 469.93,728.44 L 469.61,727.88 L 469.13,727.12 L 468.92,726.80 L 468.62,726.51 L 468.36,726.56 L 468.27,726.82 L 468.35,727.97 L 468.44,728.64 L 468.84,730.48 L 469.07,731.46 L 469.72,733.78 L 470.07,734.98 L 470.90,737.58 L 471.76,740.22 L 473.75,745.48 L 474.25,746.73 L 475.23,748.97 L 476.62,751.76 L 478.18,754.57 L 481.79,760.09 L 483.66,762.84 L 487.82,768.18 L 489.95,770.82 L 494.58,775.91 L 496.94,778.41 L 501.95,783.16 L 504.50,785.49 L 509.80,789.82 L 512.49,791.93 L 518.01,795.78 L 520.79,797.63 L 526.44,800.91 L 534.98,805.10 L 536.18,805.62 L 538.85,806.65 L 540.22,807.16 L 543.18,808.17 L 546.19,809.17 L 552.85,811.04 L 556.25,811.94 L 563.35,813.52 L 574.00,815.44 L 575.55,815.67 L 579.27,816.03 L 581.21,816.19 L 585.54,816.41 L 587.77,816.50 L 592.50,816.57 L 594.90,816.60 L 599.82,816.54 L 602.28,816.49 L 607.15,816.31 L 609.56,816.20 L 614.17,815.88 L 616.43,815.71 L 620.56,815.28 L 622.54,815.04 M 418.87,774.82 L 418.51,773.68 L 417.71,771.66 L 417.29,770.68 L 416.28,768.86 L 415.74,767.96 L 414.44,766.20 L 412.06,763.47 L 411.14,762.50 L 409.15,759.86 L 408.14,758.44 L 406.02,755.04 L 404.95,753.26 L 402.78,749.25 L 401.69,747.19 L 399.54,742.75 L 398.48,740.50 L 396.44,735.79 L 395.44,733.42 L 393.59,728.62 L 392.69,726.22 L 391.10,721.49 L 389.10,714.66 L 388.20,711.21 L 386.85,704.18 L 386.26,700.64 L 385.52,693.42 L 385.22,689.78 L 385.09,682.38 L 385.09,678.66 L 385.56,671.08 L 385.87,667.27 L 386.93,659.52 L 387.54,655.63 L 389.21,647.73 L 390.12,643.76 L 392.38,635.70 L 396.46,623.46 L 397.59,620.37 L 400.02,614.37 L 401.27,611.40 L 403.93,605.63 L 405.29,602.76 L 408.20,597.19 L 409.69,594.42 L 412.86,589.02 L 414.48,586.33 L 417.92,581.08 L 419.68,578.47 L 423.42,573.34 L 425.33,570.79 L 429.37,565.77 L 435.80,558.32 L 437.08,556.90 L 439.36,554.31 L 440.45,553.08 L 442.20,551.03 L 442.59,550.56 L 443.25,549.77 L 443.56,549.40 L 444.02,548.81 L 444.22,548.55 L 444.45,548.21 L 444.53,548.00 L 444.49,548.00 L 444.22,548.10 L 444.05,548.17 L 443.54,548.39 L 442.97,548.64 L 441.25,549.45 L 440.31,549.89 L 438.01,551.01 L 434.16,552.92 L 429.42,555.30 L 420.36,559.44 L 415.90,561.41 L 407.36,564.75 L 403.16,566.32 L 395.15,568.85 L 391.20,570.02 L 383.69,571.76 L 379.99,572.52 L 372.96,573.46 L 369.51,573.83 L 362.95,573.97 L 359.74,573.94 L 353.64,573.29 L 345.00,571.42 L 342.79,570.77 L 338.45,569.13 L 336.29,568.26 L 332.09,566.20 L 330.02,565.13 L 326.02,562.71 L 324.06,561.46 L 320.34,558.73 L 318.52,557.33 L 315.13,554.33 L 313.48,552.81 L 310.48,549.59 L 309.04,547.95 L 306.49,544.56 L 303.26,539.33 L 301.78,536.56 L 299.56,531.28 L 298.56,528.62 L 297.18,523.06 L 296.88,521.61 L 296.42,518.56 L 296.21,517.00 L 295.91,513.64 L 295.78,511.91 L 295.63,508.16 L 295.54,502.00 L 295.54,499.92 L 295.60,496.15 L 295.65,494.33 L 295.81,490.95 L 296.00,487.64 L 296.79,481.51 L 297.03,479.96 L 297.65,476.79 L 297.98,475.18 L 298.80,471.76 L 299.23,470.00 L 300.27,466.17 L 302.11,459.78 L 302.51,458.45 L 303.24,455.92 L 303.58,454.71 L 304.15,452.60 L 304.41,451.63 L 304.77,450.18 L 305.00,448.99 L 305.00,448.85 L 304.52,448.91 L 304.21,448.99 L 303.20,449.46 L 302.64,449.74 L 301.25,450.56 L 298.87,452.09 L 298.03,452.66 L 295.89,453.99 L 294.77,454.67 L 292.30,456.09 L 291.06,456.79 L 288.56,458.13 L 285.12,459.86 L 284.21,460.29 L 282.66,461.01 L 281.92,461.34 L 280.61,461.88 L 279.35,462.38 L 277.03,462.96 L 276.42,463.08 L 275.10,463.24 L 274.41,463.31 L 272.83,463.40 L 272.00,463.43 L 270.03,463.47 L 266.50,463.48 L 263.87,463.49 L 259.12,463.28 L 256.81,463.13 L 252.44,462.58 L 250.27,462.25 L 245.93,461.31 L 239.07,459.39 L 238.09,459.08 L 236.49,458.57 L 235.75,458.35 L 234.60,458.11 L 234.07,458.04 L 233.29,458.22 L 232.94,458.37 L 232.48,459.11 L 232.28,459.56 L 232.07,460.99 L 231.99,461.81 L 231.96,464.09 L 231.97,465.34 L 232.07,468.60 L 232.10,469.48 L 232.18,471.46 L 232.30,474.75 L 232.56,481.81 L 233.74,495.89 L 234.43,502.92 L 236.45,516.90 L 237.57,523.88 L 240.42,537.72 L 241.94,544.62 L 245.60,558.28 L 247.53,565.08 L 251.97,578.53 L 254.28,585.22 L 259.49,598.40 L 262.18,604.96 L 268.13,617.84 L 271.19,624.24 L 277.85,636.79 L 281.27,643.02 L 288.63,655.18 L 292.39,661.22 L 300.42,672.96 L 304.52,678.78 L 313.20,690.07 L 317.63,695.65 L 326.94,706.44 L 331.68,711.77 L 341.60,722.01 L 346.63,727.07 L 357.14,736.74 L 362.47,741.50 L 373.54,750.54 L 390.77,763.38 L 392.14,764.34 L 395.16,766.38 L 396.70,767.42 L 399.89,769.51 L 401.50,770.55 L 404.69,772.58 L 406.27,773.58 L 409.29,775.44 L 410.75,776.34 L 413.40,777.92 L 414.66,778.66 L 416.77,779.85 L 417.73,780.38 L 419.10,781.06 L 419.39,781.19 L 419.80,781.34 L 420.15,781.38 L 420.24,781.33 L 420.25,780.75 L 420.23,780.39 L 420.04,779.30 L 419.92,778.71 L 419.56,777.25 L 419.37,776.49 M 510.86,495.50 L 512.56,493.85 L 516.14,490.25 L 517.93,488.43 L 521.37,484.82 L 523.05,483.05 L 525.96,479.86 L 526.63,479.11 L 527.82,477.75 L 529.29,476.00 L 532.82,471.61 L 539.38,462.30 L 542.56,457.58 L 548.27,447.83 L 549.63,445.38 L 552.17,440.46 L 553.40,438.00 L 555.66,433.07 L 556.76,430.62 L 558.72,425.73 L 561.31,418.50 L 562.06,416.23 L 563.33,412.13 L 563.93,410.15 L 564.95,406.50 L 565.42,404.71 L 566.20,401.34 L 566.56,399.67 L 567.14,396.41 L 567.40,394.78 L 567.79,391.46 L 567.96,389.78 L 568.20,386.24 L 568.30,384.43 L 568.41,380.51 L 568.46,374.00 L 568.46,372.09 L 568.44,368.86 L 568.42,367.34 L 568.37,364.76 L 568.34,363.54 L 568.24,361.47 L 568.18,360.48 L 568.01,358.77 L 567.83,357.11 L 567.18,354.21 L 567.00,353.47 L 566.53,351.90 L 565.68,349.29 L 564.81,346.68 L 562.35,341.35 L 561.03,338.70 L 557.91,333.67 L 556.30,331.23 L 552.85,326.98 L 551.98,325.99 L 550.23,324.24 L 547.63,322.01 L 545.88,320.69 L 542.11,318.33 L 540.18,317.20 L 536.10,315.23 L 534.03,314.30 L 529.71,312.73 L 527.53,312.00 L 523.03,310.86 L 520.77,310.34 L 516.17,309.63 L 513.86,309.34 L 509.21,309.08 L 506.89,309.01 L 502.27,309.22 L 495.43,310.07 L 493.43,310.43 L 489.49,311.31 L 487.57,311.75 L 484.22,312.68 L 483.44,312.90 L 482.09,313.34 L 481.45,313.55 L 480.44,313.95 L 479.98,314.14 L 479.38,314.47 L 479.00,314.87 L 479.00,314.97 L 479.69,315.24 L 480.13,315.38 L 481.57,315.71 L 482.36,315.87 L 484.35,316.21 L 487.75,316.70 L 489.76,316.95 L 493.49,317.60 L 495.32,317.94 L 498.73,318.79 L 500.39,319.24 L 503.52,320.32 L 505.06,320.89 L 507.96,322.23 L 509.39,322.93 L 512.12,324.55 L 513.47,325.39 L 516.08,327.31 L 517.38,328.32 L 519.92,330.57 L 523.71,334.35 L 525.47,336.24 L 528.60,340.29 L 530.11,342.35 L 532.72,346.77 L 533.96,349.02 L 536.06,353.79 L 537.04,356.23 L 538.61,361.37 L 539.34,363.99 L 540.39,369.50 L 540.85,372.30 L 541.39,378.18 L 541.59,381.17 L 541.61,387.42 L 541.05,397.22 L 540.57,402.26 L 538.97,412.15 L 538.05,417.06 L 535.54,426.74 L 534.17,431.57 L 530.71,441.11 L 528.87,445.88 L 524.44,455.36 L 522.10,460.10 L 516.65,469.59 L 513.80,474.34 L 507.32,483.91 L 505.63,486.30 L 502.05,491.13 L 500.23,493.55 L 496.37,498.41 L 494.41,500.85 L 490.28,505.77 L 483.77,513.22 L 482.82,514.28 L 481.13,516.30 L 480.34,517.27 L 479.07,518.98 L 478.50,519.77 L 477.78,520.97 L 477.65,521.22 L 477.50,521.61 L 477.49,521.98 L 477.55,522.08 L 477.88,522.10 L 478.07,522.07 L 478.64,521.85 L 478.96,521.72 L 479.76,521.28 L 480.19,521.04 L 481.19,520.40 L 482.24,519.72 L 484.86,517.84 L 486.24,516.82 L 489.39,514.36 L 491.01,513.07 L 494.51,510.17 L 496.29,508.69 L 499.97,505.50 L 503.67,502.26 M 314.72,342.23 L 314.07,341.57 L 312.89,340.31 L 312.32,339.70 L 311.39,338.62 L 310.96,338.12 L 310.37,337.36 L 310.00,336.69 L 310.00,336.60 L 310.25,336.06 L 310.42,335.74 L 310.96,334.79 L 311.27,334.27 L 312.07,332.99 L 312.49,332.30 L 313.50,330.73 L 314.55,329.11 L 317.09,325.28 L 318.41,323.32 L 321.22,319.19 L 322.63,317.14 L 325.37,313.22 L 326.03,312.28 L 327.28,310.52 L 327.90,309.66 L 329.01,308.13 L 329.55,307.39 L 330.48,306.15 L 330.92,305.56 L 331.63,304.67 L 331.95,304.27 L 332.39,303.79 L 332.70,303.61 L 332.73,303.70 L 332.66,304.35 L 332.60,304.74 L 332.37,305.90 L 332.23,306.54 L 331.85,308.14 L 331.65,308.99 L 331.15,310.96 L 330.89,311.98 L 330.29,314.23 L 329.99,315.39 L 329.32,317.85 L 328.64,320.34 L 327.14,325.62 L 326.39,328.25 L 324.89,333.33 L 324.52,334.56 L 323.82,336.87 L 323.47,338.00 L 322.83,340.05 L 322.52,341.03 L 321.96,342.73 L 321.69,343.54 L 321.23,344.82 L 321.02,345.40 L 320.69,346.18 L 320.37,346.71 L 320.24,346.75 L 319.64,346.45 L 319.29,346.25 L 318.33,345.52 L 317.82,345.11 L 316.63,344.06 L 316.02,343.50 Z" fill="rgb(254,254,254)"/>
</g>
</svg>